<mxfile host="app.diagrams.net" agent="Mozilla/5.0 (Windows NT 10.0; Win64; x64) AppleWebKit/537.36 (KHTML, like Gecko) Chrome/131.0.0.0 Safari/537.36" version="26.0.2">
  <diagram name="第 1 页" id="H5mb8HrDyhOnUEcSTQM6">
    <mxGraphModel dx="1434" dy="772" grid="1" gridSize="10" guides="1" tooltips="1" connect="1" arrows="1" fold="1" page="1" pageScale="1" pageWidth="827" pageHeight="1169" math="0" shadow="0">
      <root>
        <mxCell id="0" />
        <mxCell id="1" parent="0" />
        <mxCell id="nGL3_lGxGscLZ1-xO2Rq-30" value="" style="ellipse;shape=cloud;whiteSpace=wrap;html=1;" vertex="1" parent="1">
          <mxGeometry x="30" y="380" width="630" height="450" as="geometry" />
        </mxCell>
        <mxCell id="nGL3_lGxGscLZ1-xO2Rq-2" value="" style="shape=image;verticalLabelPosition=bottom;verticalAlign=top;imageAspect=0;aspect=fixed;image=data:image/svg+xml,PHN2ZyB4bWxuczp4bGluaz0iaHR0cDovL3d3dy53My5vcmcvMTk5OS94bGluayIgeG1sbnM9Imh0dHA6Ly93d3cudzMub3JnLzIwMDAvc3ZnIiBoZWlnaHQ9IjIwMCIgd2lkdGg9IjIwMCIgdmVyc2lvbj0iMS4xIiB2aWV3Qm94PSIwIDAgMTAyNCAxMDI0IiBjbGFzcz0iaWNvbiI+PHBhdGggZmlsbD0iIzREQkJGNyIgZD0iTTgxMi42IDYxMS4zYy0yNC43IDAtNDcuNiA2LjktNjcuNCAxOC43LTY2LjUtNzQuNy02Ni4yLTE4Ny43IDAuOC0yNjIuMSAxOS41IDExLjUgNDIuMiAxOC4yIDY2LjUgMTguMiA3Mi41IDAgMTMxLjQtNTguOCAxMzEuNC0xMzEuNCAwLTcyLjUtNTguOC0xMzEuNC0xMzEuNC0xMzEuNC03Mi41IDAtMTMxLjQgNTguOC0xMzEuNCAxMzEuNCAwIDI1LjkgNy42IDQ5LjkgMjAuNSA3MC4yLTc1LjUgNjcuMy0xOTAuMSA2Ni40LTI2NC41LTIuNyAxMS45LTE5LjggMTguOC00Mi44IDE4LjgtNjcuNSAwLTcyLjUtNTguOC0xMzEuNC0xMzEuNC0xMzEuNC03Mi41IDAtMTMxLjQgNTguOC0xMzEuNCAxMzEuNCAwIDcyLjUgNTguOCAxMzEuNCAxMzEuNCAxMzEuNCAyNS42IDAgNDkuMy03LjQgNjkuNS0yMCA2OS4yIDc1IDY5LjUgMTkwLjQgMC44IDI2NS44LTIwLjMtMTIuOS00NC40LTIwLjUtNzAuMy0yMC41LTcyLjUgMC0xMzEuNCA1OC44LTEzMS40IDEzMS40IDAgNzIuNSA1OC44IDEzMS40IDEzMS40IDEzMS40IDcyLjUgMCAxMzEuNC01OC44IDEzMS40LTEzMS40IDAtMjQuNC02LjctNDcuMS0xOC4zLTY2LjYgNzQuMy02OC40IDE4OC4xLTY5LjMgMjYzLjQtMi43LTEyLjYgMjAuMS0xOS45IDQzLjgtMTkuOSA2OS4zIDAgNzIuNSA1OC44IDEzMS40IDEzMS40IDEzMS40IDcyLjUgMCAxMzEuNC01OC44IDEzMS40LTEzMS40IDAuMS03Mi43LTU4LjctMTMxLjUtMTMxLjMtMTMxLjV6Ii8+PHBhdGggZmlsbD0iIiBkPSJNNzYzLjIgMTg5LjJsLTkwLjUgOTAuNWMtNzYuOSA3Ni45LTIwMS42IDc2LjktMjc4LjUgMGwtOTAuNS05MC41Yy0xMS44LTExLjgtMzEtMTEuOC00Mi44IDAtMTEuOCAxMS44LTExLjggMzEgMCA0Mi44bDkwLjUgOTAuNWM3Ni45IDc2LjkgNzYuOSAyMDEuNiAwIDI3OC41bC05MC41IDkwLjVjLTExLjggMTEuOC0xMS44IDMxIDAgNDIuOCAxMS44IDExLjggMzEgMTEuOCA0Mi44IDBsOTAuNS05MC41Yzc2LjktNzYuOSAyMDEuNi03Ni45IDI3OC41IDBsOTAuNSA5MC41YzExLjggMTEuOCAzMSAxMS44IDQyLjggMCAxMS44LTExLjggMTEuOC0zMSAwLTQyLjhMNzE1LjUgNjAxYy03Ni45LTc2LjktNzYuOS0yMDEuNiAwLTI3OC41TDgwNiAyMzJjMTEuOC0xMS44IDExLjgtMzEgMC00Mi44LTExLjgtMTEuOC0zMC45LTExLjgtNDIuOCAweiIvPjxwYXRoIGZpbGw9IiM0REJCRjciIGQ9Ik01MzMuNSA0NjEuOG0tNzUuMSAwYTc1LjEgNzUuMSAwIDEgMCAxNTAuMiAwIDc1LjEgNzUuMSAwIDEgMC0xNTAuMiAwWiIvPjxwYXRoIGZpbGw9IiIgZD0iTTUzMy41IDQ2MS44bS0zNy41IDBhMzcuNSAzNy41IDAgMSAwIDc1IDAgMzcuNSAzNy41IDAgMSAwLTc1IDBaIi8+PHBhdGggZmlsbD0iIiBkPSJNMzI3LjcgMzEyLjJjLTEyLjQgNS4zLTI2LjEgOC4yLTQwLjQgOC4yLTU3IDAtMTAzLjItNDYuMi0xMDMuMi0xMDMuMlMyMzAuMyAxMTQgMjg3LjMgMTE0czEwMy4yIDQ2LjIgMTAzLjIgMTAzLjJjMCAxMy40LTIuNiAyNi4yLTcuMyAzNy45bDIxLjIgMjEuMmM5LTE3LjggMTQuMi0zNy45IDE0LjItNTkuMiAwLTcyLjUtNTguOC0xMzEuNC0xMzEuNC0xMzEuNHMtMTMxLjQgNTguOC0xMzEuNCAxMzEuNGMwIDcyLjUgNTguOCAxMzEuNCAxMzEuNCAxMzEuNCAyMi4yIDAgNDMuMS01LjYgNjEuNS0xNS4zbC0yMS0yMXpNNzM0LjcgMzEyLjJjMTIuNCA1LjMgMjYuMSA4LjIgNDAuNCA4LjIgNTcgMCAxMDMuMi00Ni4yIDEwMy4yLTEwMy4yUzgzMi4xIDExNCA3NzUuMSAxMTRzLTEwMy4yIDQ2LjItMTAzLjIgMTAzLjJjMCAxMy40IDIuNiAyNi4yIDcuMyAzNy45TDY1OCAyNzYuNGMtOS0xNy44LTE0LjItMzcuOS0xNC4yLTU5LjIgMC03Mi41IDU4LjgtMTMxLjQgMTMxLjQtMTMxLjRzMTMxLjQgNTguOCAxMzEuNCAxMzEuNGMwIDcyLjUtNTguOCAxMzEuNC0xMzEuNCAxMzEuNC0yMi4yIDAtNDMuMS01LjYtNjEuNS0xNS4zbDIxLTIxLjF6TTMyNy43IDYxMC4xYy0xMi40LTUuMy0yNi4xLTguMi00MC40LTguMi01NyAwLTEwMy4yIDQ2LjItMTAzLjIgMTAzLjJzNDYuMiAxMDMuMiAxMDMuMiAxMDMuMiAxMDMuMi00Ni4yIDEwMy4yLTEwMy4yYzAtMTMuNC0yLjYtMjYuMi03LjMtMzcuOWwyMS4yLTIxLjJjOSAxNy44IDE0LjIgMzcuOSAxNC4yIDU5LjIgMCA3Mi41LTU4LjggMTMxLjQtMTMxLjQgMTMxLjRzLTEzMS40LTU4LjgtMTMxLjQtMTMxLjRjMC03Mi41IDU4LjgtMTMxLjQgMTMxLjQtMTMxLjQgMjIuMiAwIDQzLjEgNS42IDYxLjUgMTUuM2wtMjEgMjF6TTczNC43IDYxMC4xYzEyLjQtNS4zIDI2LjEtOC4yIDQwLjQtOC4yIDU3IDAgMTAzLjIgNDYuMiAxMDMuMiAxMDMuMnMtNDYuMiAxMDMuMi0xMDMuMiAxMDMuMi0xMDMuMi00Ni4yLTEwMy4yLTEwMy4yYzAtMTMuNCAyLjYtMjYuMiA3LjMtMzcuOUw2NTggNjQ1LjljLTkgMTcuOC0xNC4yIDM3LjktMTQuMiA1OS4yIDAgNzIuNSA1OC44IDEzMS40IDEzMS40IDEzMS40czEzMS40LTU4LjggMTMxLjQtMTMxLjRjMC03Mi41LTU4LjgtMTMxLjQtMTMxLjQtMTMxLjQtMjIuMiAwLTQzLjEgNS42LTYxLjUgMTUuM2wyMSAyMS4xeiIvPjwvc3ZnPg==" vertex="1" parent="1">
          <mxGeometry x="160" y="640" width="80" height="80" as="geometry" />
        </mxCell>
        <mxCell id="nGL3_lGxGscLZ1-xO2Rq-3" value="" style="shape=image;verticalLabelPosition=bottom;verticalAlign=top;imageAspect=0;aspect=fixed;image=data:image/svg+xml,PHN2ZyB4bWxuczp4bGluaz0iaHR0cDovL3d3dy53My5vcmcvMTk5OS94bGluayIgeG1sbnM9Imh0dHA6Ly93d3cudzMub3JnLzIwMDAvc3ZnIiBoZWlnaHQ9IjIwMCIgd2lkdGg9IjIwMCIgdmVyc2lvbj0iMS4xIiB2aWV3Qm94PSIwIDAgMTAyNCAxMDI0IiBjbGFzcz0iaWNvbiI+PHBhdGggZmlsbD0iIzREQkJGNyIgZD0iTTgxMi42IDYxMS4zYy0yNC43IDAtNDcuNiA2LjktNjcuNCAxOC43LTY2LjUtNzQuNy02Ni4yLTE4Ny43IDAuOC0yNjIuMSAxOS41IDExLjUgNDIuMiAxOC4yIDY2LjUgMTguMiA3Mi41IDAgMTMxLjQtNTguOCAxMzEuNC0xMzEuNCAwLTcyLjUtNTguOC0xMzEuNC0xMzEuNC0xMzEuNC03Mi41IDAtMTMxLjQgNTguOC0xMzEuNCAxMzEuNCAwIDI1LjkgNy42IDQ5LjkgMjAuNSA3MC4yLTc1LjUgNjcuMy0xOTAuMSA2Ni40LTI2NC41LTIuNyAxMS45LTE5LjggMTguOC00Mi44IDE4LjgtNjcuNSAwLTcyLjUtNTguOC0xMzEuNC0xMzEuNC0xMzEuNC03Mi41IDAtMTMxLjQgNTguOC0xMzEuNCAxMzEuNCAwIDcyLjUgNTguOCAxMzEuNCAxMzEuNCAxMzEuNCAyNS42IDAgNDkuMy03LjQgNjkuNS0yMCA2OS4yIDc1IDY5LjUgMTkwLjQgMC44IDI2NS44LTIwLjMtMTIuOS00NC40LTIwLjUtNzAuMy0yMC41LTcyLjUgMC0xMzEuNCA1OC44LTEzMS40IDEzMS40IDAgNzIuNSA1OC44IDEzMS40IDEzMS40IDEzMS40IDcyLjUgMCAxMzEuNC01OC44IDEzMS40LTEzMS40IDAtMjQuNC02LjctNDcuMS0xOC4zLTY2LjYgNzQuMy02OC40IDE4OC4xLTY5LjMgMjYzLjQtMi43LTEyLjYgMjAuMS0xOS45IDQzLjgtMTkuOSA2OS4zIDAgNzIuNSA1OC44IDEzMS40IDEzMS40IDEzMS40IDcyLjUgMCAxMzEuNC01OC44IDEzMS40LTEzMS40IDAuMS03Mi43LTU4LjctMTMxLjUtMTMxLjMtMTMxLjV6Ii8+PHBhdGggZmlsbD0iIiBkPSJNNzYzLjIgMTg5LjJsLTkwLjUgOTAuNWMtNzYuOSA3Ni45LTIwMS42IDc2LjktMjc4LjUgMGwtOTAuNS05MC41Yy0xMS44LTExLjgtMzEtMTEuOC00Mi44IDAtMTEuOCAxMS44LTExLjggMzEgMCA0Mi44bDkwLjUgOTAuNWM3Ni45IDc2LjkgNzYuOSAyMDEuNiAwIDI3OC41bC05MC41IDkwLjVjLTExLjggMTEuOC0xMS44IDMxIDAgNDIuOCAxMS44IDExLjggMzEgMTEuOCA0Mi44IDBsOTAuNS05MC41Yzc2LjktNzYuOSAyMDEuNi03Ni45IDI3OC41IDBsOTAuNSA5MC41YzExLjggMTEuOCAzMSAxMS44IDQyLjggMCAxMS44LTExLjggMTEuOC0zMSAwLTQyLjhMNzE1LjUgNjAxYy03Ni45LTc2LjktNzYuOS0yMDEuNiAwLTI3OC41TDgwNiAyMzJjMTEuOC0xMS44IDExLjgtMzEgMC00Mi44LTExLjgtMTEuOC0zMC45LTExLjgtNDIuOCAweiIvPjxwYXRoIGZpbGw9IiM0REJCRjciIGQ9Ik01MzMuNSA0NjEuOG0tNzUuMSAwYTc1LjEgNzUuMSAwIDEgMCAxNTAuMiAwIDc1LjEgNzUuMSAwIDEgMC0xNTAuMiAwWiIvPjxwYXRoIGZpbGw9IiIgZD0iTTUzMy41IDQ2MS44bS0zNy41IDBhMzcuNSAzNy41IDAgMSAwIDc1IDAgMzcuNSAzNy41IDAgMSAwLTc1IDBaIi8+PHBhdGggZmlsbD0iIiBkPSJNMzI3LjcgMzEyLjJjLTEyLjQgNS4zLTI2LjEgOC4yLTQwLjQgOC4yLTU3IDAtMTAzLjItNDYuMi0xMDMuMi0xMDMuMlMyMzAuMyAxMTQgMjg3LjMgMTE0czEwMy4yIDQ2LjIgMTAzLjIgMTAzLjJjMCAxMy40LTIuNiAyNi4yLTcuMyAzNy45bDIxLjIgMjEuMmM5LTE3LjggMTQuMi0zNy45IDE0LjItNTkuMiAwLTcyLjUtNTguOC0xMzEuNC0xMzEuNC0xMzEuNHMtMTMxLjQgNTguOC0xMzEuNCAxMzEuNGMwIDcyLjUgNTguOCAxMzEuNCAxMzEuNCAxMzEuNCAyMi4yIDAgNDMuMS01LjYgNjEuNS0xNS4zbC0yMS0yMXpNNzM0LjcgMzEyLjJjMTIuNCA1LjMgMjYuMSA4LjIgNDAuNCA4LjIgNTcgMCAxMDMuMi00Ni4yIDEwMy4yLTEwMy4yUzgzMi4xIDExNCA3NzUuMSAxMTRzLTEwMy4yIDQ2LjItMTAzLjIgMTAzLjJjMCAxMy40IDIuNiAyNi4yIDcuMyAzNy45TDY1OCAyNzYuNGMtOS0xNy44LTE0LjItMzcuOS0xNC4yLTU5LjIgMC03Mi41IDU4LjgtMTMxLjQgMTMxLjQtMTMxLjRzMTMxLjQgNTguOCAxMzEuNCAxMzEuNGMwIDcyLjUtNTguOCAxMzEuNC0xMzEuNCAxMzEuNC0yMi4yIDAtNDMuMS01LjYtNjEuNS0xNS4zbDIxLTIxLjF6TTMyNy43IDYxMC4xYy0xMi40LTUuMy0yNi4xLTguMi00MC40LTguMi01NyAwLTEwMy4yIDQ2LjItMTAzLjIgMTAzLjJzNDYuMiAxMDMuMiAxMDMuMiAxMDMuMiAxMDMuMi00Ni4yIDEwMy4yLTEwMy4yYzAtMTMuNC0yLjYtMjYuMi03LjMtMzcuOWwyMS4yLTIxLjJjOSAxNy44IDE0LjIgMzcuOSAxNC4yIDU5LjIgMCA3Mi41LTU4LjggMTMxLjQtMTMxLjQgMTMxLjRzLTEzMS40LTU4LjgtMTMxLjQtMTMxLjRjMC03Mi41IDU4LjgtMTMxLjQgMTMxLjQtMTMxLjQgMjIuMiAwIDQzLjEgNS42IDYxLjUgMTUuM2wtMjEgMjF6TTczNC43IDYxMC4xYzEyLjQtNS4zIDI2LjEtOC4yIDQwLjQtOC4yIDU3IDAgMTAzLjIgNDYuMiAxMDMuMiAxMDMuMnMtNDYuMiAxMDMuMi0xMDMuMiAxMDMuMi0xMDMuMi00Ni4yLTEwMy4yLTEwMy4yYzAtMTMuNCAyLjYtMjYuMiA3LjMtMzcuOUw2NTggNjQ1LjljLTkgMTcuOC0xNC4yIDM3LjktMTQuMiA1OS4yIDAgNzIuNSA1OC44IDEzMS40IDEzMS40IDEzMS40czEzMS40LTU4LjggMTMxLjQtMTMxLjRjMC03Mi41LTU4LjgtMTMxLjQtMTMxLjQtMTMxLjQtMjIuMiAwLTQzLjEgNS42LTYxLjUgMTUuM2wyMSAyMS4xeiIvPjwvc3ZnPg==" vertex="1" parent="1">
          <mxGeometry x="480" y="640" width="80" height="80" as="geometry" />
        </mxCell>
        <mxCell id="nGL3_lGxGscLZ1-xO2Rq-6" value="" style="shape=image;verticalLabelPosition=bottom;verticalAlign=top;imageAspect=0;aspect=fixed;image=data:image/svg+xml,PHN2ZyB4bWxuczp4bGluaz0iaHR0cDovL3d3dy53My5vcmcvMTk5OS94bGluayIgeG1sbnM9Imh0dHA6Ly93d3cudzMub3JnLzIwMDAvc3ZnIiBoZWlnaHQ9IjIwMCIgd2lkdGg9IjIwMCIgdmVyc2lvbj0iMS4xIiB2aWV3Qm94PSIwIDAgMTAyNCAxMDI0IiBjbGFzcz0iaWNvbiI+PHBhdGggY2xhc3M9InNlbGVjdGVkIiBkYXRhLXNwbS1hbmNob3ItaWQ9ImEzMTN4LnNlYXJjaF9pbmRleC4wLmkzLjIxNmQzYTgxc0JrZ0twIiBmaWxsPSIjZDgxZTA2IiBkPSJNODEyLjYgNjExLjNjLTI0LjcgMC00Ny42IDYuOS02Ny40IDE4LjctNjYuNS03NC43LTY2LjItMTg3LjcgMC44LTI2Mi4xIDE5LjUgMTEuNSA0Mi4yIDE4LjIgNjYuNSAxOC4yIDcyLjUgMCAxMzEuNC01OC44IDEzMS40LTEzMS40IDAtNzIuNS01OC44LTEzMS40LTEzMS40LTEzMS40LTcyLjUgMC0xMzEuNCA1OC44LTEzMS40IDEzMS40IDAgMjUuOSA3LjYgNDkuOSAyMC41IDcwLjItNzUuNSA2Ny4zLTE5MC4xIDY2LjQtMjY0LjUtMi43IDExLjktMTkuOCAxOC44LTQyLjggMTguOC02Ny41IDAtNzIuNS01OC44LTEzMS40LTEzMS40LTEzMS40LTcyLjUgMC0xMzEuNCA1OC44LTEzMS40IDEzMS40IDAgNzIuNSA1OC44IDEzMS40IDEzMS40IDEzMS40IDI1LjYgMCA0OS4zLTcuNCA2OS41LTIwIDY5LjIgNzUgNjkuNSAxOTAuNCAwLjggMjY1LjgtMjAuMy0xMi45LTQ0LjQtMjAuNS03MC4zLTIwLjUtNzIuNSAwLTEzMS40IDU4LjgtMTMxLjQgMTMxLjQgMCA3Mi41IDU4LjggMTMxLjQgMTMxLjQgMTMxLjQgNzIuNSAwIDEzMS40LTU4LjggMTMxLjQtMTMxLjQgMC0yNC40LTYuNy00Ny4xLTE4LjMtNjYuNiA3NC4zLTY4LjQgMTg4LjEtNjkuMyAyNjMuNC0yLjctMTIuNiAyMC4xLTE5LjkgNDMuOC0xOS45IDY5LjMgMCA3Mi41IDU4LjggMTMxLjQgMTMxLjQgMTMxLjQgNzIuNSAwIDEzMS40LTU4LjggMTMxLjQtMTMxLjQgMC4xLTcyLjctNTguNy0xMzEuNS0xMzEuMy0xMzEuNXoiLz48cGF0aCBmaWxsPSIiIGQ9Ik03NjMuMiAxODkuMmwtOTAuNSA5MC41Yy03Ni45IDc2LjktMjAxLjYgNzYuOS0yNzguNSAwbC05MC41LTkwLjVjLTExLjgtMTEuOC0zMS0xMS44LTQyLjggMC0xMS44IDExLjgtMTEuOCAzMSAwIDQyLjhsOTAuNSA5MC41Yzc2LjkgNzYuOSA3Ni45IDIwMS42IDAgMjc4LjVsLTkwLjUgOTAuNWMtMTEuOCAxMS44LTExLjggMzEgMCA0Mi44IDExLjggMTEuOCAzMSAxMS44IDQyLjggMGw5MC41LTkwLjVjNzYuOS03Ni45IDIwMS42LTc2LjkgMjc4LjUgMGw5MC41IDkwLjVjMTEuOCAxMS44IDMxIDExLjggNDIuOCAwIDExLjgtMTEuOCAxMS44LTMxIDAtNDIuOEw3MTUuNSA2MDFjLTc2LjktNzYuOS03Ni45LTIwMS42IDAtMjc4LjVMODA2IDIzMmMxMS44LTExLjggMTEuOC0zMSAwLTQyLjgtMTEuOC0xMS44LTMwLjktMTEuOC00Mi44IDB6Ii8+PHBhdGggY2xhc3M9InNlbGVjdGVkIiBkYXRhLXNwbS1hbmNob3ItaWQ9ImEzMTN4LnNlYXJjaF9pbmRleC4wLmk0LjIxNmQzYTgxc0JrZ0twIiBmaWxsPSIjZDgxZTA2IiBkPSJNNTMzLjUgNDYxLjhtLTc1LjEgMGE3NS4xIDc1LjEgMCAxIDAgMTUwLjIgMCA3NS4xIDc1LjEgMCAxIDAtMTUwLjIgMFoiLz48cGF0aCBmaWxsPSIiIGQ9Ik01MzMuNSA0NjEuOG0tMzcuNSAwYTM3LjUgMzcuNSAwIDEgMCA3NSAwIDM3LjUgMzcuNSAwIDEgMC03NSAwWiIvPjxwYXRoIGZpbGw9IiIgZD0iTTMyNy43IDMxMi4yYy0xMi40IDUuMy0yNi4xIDguMi00MC40IDguMi01NyAwLTEwMy4yLTQ2LjItMTAzLjItMTAzLjJTMjMwLjMgMTE0IDI4Ny4zIDExNHMxMDMuMiA0Ni4yIDEwMy4yIDEwMy4yYzAgMTMuNC0yLjYgMjYuMi03LjMgMzcuOWwyMS4yIDIxLjJjOS0xNy44IDE0LjItMzcuOSAxNC4yLTU5LjIgMC03Mi41LTU4LjgtMTMxLjQtMTMxLjQtMTMxLjRzLTEzMS40IDU4LjgtMTMxLjQgMTMxLjRjMCA3Mi41IDU4LjggMTMxLjQgMTMxLjQgMTMxLjQgMjIuMiAwIDQzLjEtNS42IDYxLjUtMTUuM2wtMjEtMjF6TTczNC43IDMxMi4yYzEyLjQgNS4zIDI2LjEgOC4yIDQwLjQgOC4yIDU3IDAgMTAzLjItNDYuMiAxMDMuMi0xMDMuMlM4MzIuMSAxMTQgNzc1LjEgMTE0cy0xMDMuMiA0Ni4yLTEwMy4yIDEwMy4yYzAgMTMuNCAyLjYgMjYuMiA3LjMgMzcuOUw2NTggMjc2LjRjLTktMTcuOC0xNC4yLTM3LjktMTQuMi01OS4yIDAtNzIuNSA1OC44LTEzMS40IDEzMS40LTEzMS40czEzMS40IDU4LjggMTMxLjQgMTMxLjRjMCA3Mi41LTU4LjggMTMxLjQtMTMxLjQgMTMxLjQtMjIuMiAwLTQzLjEtNS42LTYxLjUtMTUuM2wyMS0yMS4xek0zMjcuNyA2MTAuMWMtMTIuNC01LjMtMjYuMS04LjItNDAuNC04LjItNTcgMC0xMDMuMiA0Ni4yLTEwMy4yIDEwMy4yczQ2LjIgMTAzLjIgMTAzLjIgMTAzLjIgMTAzLjItNDYuMiAxMDMuMi0xMDMuMmMwLTEzLjQtMi42LTI2LjItNy4zLTM3LjlsMjEuMi0yMS4yYzkgMTcuOCAxNC4yIDM3LjkgMTQuMiA1OS4yIDAgNzIuNS01OC44IDEzMS40LTEzMS40IDEzMS40cy0xMzEuNC01OC44LTEzMS40LTEzMS40YzAtNzIuNSA1OC44LTEzMS40IDEzMS40LTEzMS40IDIyLjIgMCA0My4xIDUuNiA2MS41IDE1LjNsLTIxIDIxek03MzQuNyA2MTAuMWMxMi40LTUuMyAyNi4xLTguMiA0MC40LTguMiA1NyAwIDEwMy4yIDQ2LjIgMTAzLjIgMTAzLjJzLTQ2LjIgMTAzLjItMTAzLjIgMTAzLjItMTAzLjItNDYuMi0xMDMuMi0xMDMuMmMwLTEzLjQgMi42LTI2LjIgNy4zLTM3LjlMNjU4IDY0NS45Yy05IDE3LjgtMTQuMiAzNy45LTE0LjIgNTkuMiAwIDcyLjUgNTguOCAxMzEuNCAxMzEuNCAxMzEuNHMxMzEuNC01OC44IDEzMS40LTEzMS40YzAtNzIuNS01OC44LTEzMS40LTEzMS40LTEzMS40LTIyLjIgMC00My4xIDUuNi02MS41IDE1LjNsMjEgMjEuMXoiLz48L3N2Zz4=" vertex="1" parent="1">
          <mxGeometry x="320" y="820" width="80" height="80" as="geometry" />
        </mxCell>
        <mxCell id="nGL3_lGxGscLZ1-xO2Rq-10" value="" style="endArrow=classic;startArrow=classic;html=1;rounded=0;entryX=0;entryY=0.5;entryDx=0;entryDy=0;exitX=1;exitY=0.5;exitDx=0;exitDy=0;dashed=1;" edge="1" parent="1" source="nGL3_lGxGscLZ1-xO2Rq-2" target="nGL3_lGxGscLZ1-xO2Rq-3">
          <mxGeometry width="50" height="50" relative="1" as="geometry">
            <mxPoint x="400" y="917" as="sourcePoint" />
            <mxPoint x="494" y="840" as="targetPoint" />
          </mxGeometry>
        </mxCell>
        <mxCell id="nGL3_lGxGscLZ1-xO2Rq-14" value="" style="shape=image;verticalLabelPosition=bottom;verticalAlign=top;imageAspect=0;aspect=fixed;image=data:image/png,iVBORw0KGgoAAAANSUhEUgAAAQUAAADICAYAAADhl/RPAAAAAXNSR0IArs4c6QAAGC5JREFUeF7tnXmUHNV1xr9b3VU9IEBskqbbAQsk1N3CgC0hg9llEYEdkFkSGQyE2BwM+EDABmPjBAtj55gdAngJMZAAMhFYRojFhAN2IiDH8UlIAra6WxKbDV0zkhAHhNFM1XTdUDMySHhGU91dy3tVt/+d9+777u+++U5XddW7BPkIASEgBLYgQEJDCAgBIbAlATEF2Q9CQAhsRUBMQTaEEBACYgqyB4SAEBibgHxTkN0hBISAfFOQPSAEhIB8U5A9IASEQEACcvkQEJQMEwJZISCmkJVKS55CICABMYWAoGSYEMgKATGFrFRa8hQCAQmIKQQEJcOEgIoEpvC0yTnHuqRZqF0alj4xhbBIShwhEDOBXqfyVwboBgC7MHCTbdW+HIYEMYUwKEoMIRAjgd14xocKrnE3QHO3WtbwPtPMN5Z3K0VMoVuCMl8IxEWAQSW3fAHD+DsCdvjgsgzeCJP2s6n2SjeSxBS6oSdzhUBMBEpcLsOlOwA6ZFtLMvhZ26rP7kaWmEI39GSuEIiaAE8vFJ38IiK6BIAZbDn+XtOqnx9s7B+PElPolJzMEwIRE+h1y3PJozuIaGrbS3Vxf0FMoW3aMkEIREugl6dPMlzzVgALO12pm/sLYgqdUpd5QiACAkWnfC5A1xBox27DM/h52xz4OOjlgXZiiSm0Q0vGCoGICOzK0/+k4ObvJtBRYS7B4Ntsq35OOzHFFNqhJWOFQAQEik7lbADXh/HtYDR5HnsL+wqN+4NKF1MISkrGCYGQCezO1aLl4i4AR4cceqtwDLzTMt3919KaF4KsI6YQhJKMEQIhEyg61TMIfAtAE0MOPWo4ZqzMWRsPfJVe3TTeemIK4xGSvwuBEAmM+YhyiGuMHYrvbFr1L4y3lJjCeITk70IgDAIM6nWr5xH4qqjuHQSRycBf2lbt7m2NFVMIQlLGCIEuCEzh8l451/gxgIO7CBPSVB5gszXLptW1sQKKKYSEWsIIgdEI9LrlrxpsXKMOHX7TM+i0vnztETEFdaoiSjJAYDJPn5Zz80sI1NXLSWGiYubHhyzjzHW0sk8uH8IkK7GEwDgEik71IgJuVAjUG8zeBXahsTiIJrl8CEJJxgiBAASKXP0wubwYoEMDDI9lCAMrWubAwrX0Un/QBcUUgpKScUJgGwR6neqXDPD1APWoAsoj/mqfWb+uXT1iCu0Sk/FCYAsCk3mvKTmncBcRzVcGDPOqIfIWrrVW/V8nmsQUOqEmc4QAgKJbOYYY/uXCbqoAYeZ/Jeutk5rUfKdTTWIKnZKTeZklUOLS9uzudCOBvqgSBI+9q/usxmUgcDe6xBS6oSdzM0eg6FRmE9O/gDBdqeSZP9cs1O8NQ5OYQhgUJUYmCPS61csNxpVKJctsM+F426r/d1i6xBTCIilxUkvAf0zZcMl/EGmOYkn+j2e6x/TRmnVh6hJTCJOmxEodgZHj0YzrCJigVHKM+5uWewZozWDYusQUwiYq8VJBwD8AxXRwOxE+pVpCTLjcNmvfiUqXmEJUZCWutgT8B5EIuHq0LkzJJsWbYPApYbSG21YeYgrJVllWV4jAyL0D458JOFwhWcNSGLyW2fhkX2Hlb6LWJqYQNWGJrwWBXrdyicF0rYpi/aPaXZOPXU+NZhz6xBTioCxrKEtg+DFlt+c+Ao5QVOQThrlxQZCzFcPSL6YQFkmJox2B4lD1RPJwO4BdVBTP4Jttq35h3NrEFOImLuslTsB/TBnuxFsAjHuIaRJiGcwAXWxbtUTOZBBTSKLqsmZiBIpO+UBiw39MeVpiIsZZuMU4pb9QW5KUPjGFpMjLuvESYORKTuVyJvobAvLxLh5steGmsETH2WZtRbAZ0YwSU4iGq0RViMAknjY975o/VvAx5fcoMaOP4c7rK6xZmTQ6MYWkKyDrR0qg5FQuAOjmSBfpMjgDvxk03WM30JpXuwwVynQxhVAwShDVCEzhaZMNx/RPRDpGNW1b6mHg6QFz8Lg36MU3VdEppqBKJURHaARUPBFptOSY8aBt0ULQSie05EMIJKYQAkQJoQgBnmmVXPZ/xvuSIoq2JeMHTaumpE4xBQ12j0gcn8CUwepHDPD9RFQZf3TCI4gva5r1qxJWMebyYgqqVkZ0BSZQcsp/DRh/H3hCggM94Mw+q3ZXghLGXVpMYVxEMkBVAlN4ygTD2fUeIpygqsb3dfGgZ9DJ2+rhqEoOYgqqVEJ0tEVg8mB5/xzoQSKa2tbEBAb7DyW1CMeuNev/kcDybS8pptA2MpmQNIHNvRqvBmAlrWX89fn1FtNR/YXar8cfq8YIMQU16iAqAhDYhfee2OMU7iTCiQGGJz+E2XYsHLWe6quSFxNcgZhCcFYyMkEC/uVCHsbDIOyRoIzASzPjt2Q5hzXphd8FnqTIQDEFRQohMsYmsPnXBf9UJA0uFwBmfsm16ND1VLN1rKuYgo5Vy4jmXXn6TgXH/CdtLhf8sxSZ657lHtlPL6zVtUxiCrpWLuW6i051FpiX6vDrwvul4Oc2mc4RKr3H0Mk2EVPohJrMiZRAr1u52GC6LtJFQg7OwK8GzMH5uhuCj0VMIeTNIeE6J7AzT915O6dnCRHN7zxK/DMZeIrMN4/tpv17/KrHXlFMQaVqZFhLyZ1xGHu5+4nQqxUG5keahfpxWmkeR6yYQpqqqWku/uUCMV2l6jFpY2Id7udYOxWElqboR5UtppCmamqWyySeuYPpeItBtEAz6b7cO5pW7SwNdY8rWUxhXEQyIAoCJZ5RYcd4lIj2iiJ+lDEZuMm2al+Oco0kY4spJEk/o2sXncrZBNwMUI92CNj7drPQ+KZ2utsQLKbQBiwZ2h0B/92F7RzrbhAd312kZGZ7xJf0mfXrk1k9vlXFFOJjnemViu6Mw+Hl7tPu14XNVcuKIfjpiimM8q9aHKx+p2UN3bGWVr+Y6f/kkJIvDVauBdElIYVLIAxf0LTqtyawcCJLiilsgb2Xp08iN38/gY4Es81Wa55Nq2uJVCYFi5Z47z3ZtZYS6EBd02F459lW44e66u9Et5jCZmr+s/bE/DCIiu+D9A/IwNz+Qv35TuBmec4Ud8a8HBtLAZqoI4fNTV7PtK3a3Trq70azmAKAolP5IoH8LsR/9Goug9/y0Jrfb63+z25AZ2Yug0pOZRETLieQoWPeviEw+Kw+q3Gnjvq71ZxtU2CYRbd6OwFnbBskb2oRH9dvNn7eLfA0z/dfde5xzaUAjtY5Tw/eF7JqCJm+0bgbz/iQ5RoPEmh2wA3sMnkLbLPxWMDxmRo20ncBjxBhT50Tz+I9hA/WK5PfFPyXb8DGMoB2a2cDMzDEhndqX77xk3bmpX1sabDiP/9/J0AFnXMVQxipXuZMoehWvgLGNQTKdbKBs369uRUznmkVXe9mAp3TCUuV5jC8i2yroUVDmai5ZccUeGpP0elZTEQnhQE165tody6XLNd4GMDHwuCZZIys1zKTlw+TeZ+9c25+OQH7hrr5mL/VLNSvCDWmBsE6vfxSMrWM1nBbtUj9N4WSW5nPDP+BpJ0i2pTKdg+OIt+iU/XfDrxGu7MPRoXBtzat+gVRcNI5ZnpNwf+9fKjyzXd/cF5EoKjzTO279e9t7pE2735j1M/qvOH/oJ3B/2hb9S+mIZewc4j6nyVsvYHi7c7lHU2H/LbkxwSaEMaglJ7C46PxH1eGay0H6IAwUCkQY0nTqp2igA4lJaTOFHoHZ+5rgB8EYVrsxFN4Xl/RrRxDTPcC2CV2nhEsyIwH7EItlJvNEchTImSqTKE4VD2RPF4M0HZJ0fVP9rXNTfNBLw8kpSGUdRlGySlfwUR/G8PlVyiSAwR5omnWPg2CG2BsZoekwxQYuZJTuUqh13N/6Zje/PXU2KjjzprIe+6yvbv9A8Nvi6bn88um6R4FWjOYnpSiyUR7U9iJZ+46weVlBBweDaJOo/Jzb5vG3Ldo5YZOIyQxr9eZMcdg4wEQfSiJ9aNZk59rmW8c0k/9v48mfrqiam0KRacymxgPqrqB/b6CrsXz1lOjqcO2KTrlCwnGTTpoDaqRGbXfW3SYbuYcNL8oxmlrCsXB8ulExu2qdyL2W5KzxUf2Uf3lKAoYSkz//oFb+RFAnw8lnipBGL9zLfr4OlrZp4okHXToZwqMfNGt3kLAuToA9jUyeO2Q6R66jl5Yo5rm4VZtbs+ylN0/8Ns/256FQ5Q2Y9U2w2Y9WpnCJJ7Za7r8AICDFeW5DVnqneI0madPyzn5J/Tq7Byo8htc0zlIRRMOpD7hQdqYwhRnn4MM5B4i0KSEmXW8vEqnOBXd6hFg9nlG9fh3x5y6mcjA2x7zIXKEXucUtTAF/3l7Am7oPE11ZjLwjketBf3mqieTUlVyKue/e5aEf/xc6j5MrSNsc9VTqUssxoSUN4WiU7mHQKfFyCSepQzvhGa+8WA8i72/StGp3Eags+NeN471WgYf35+v+69zy6cLAsqaQgqft9+qTHGf4uQ/z7GD6z0E0CFd7BdlpzJ7p9uFxmJlBWokTElT6HXLcw02fgpgZ41Yti01rlOcNr8P8jMQ9mhbpAYTmPgbtln/rgZStZConCkU3co3wPi2rseDd1L1KE/+KQ2VF7Bn3EvA9p1oU38Of69p1c9XX6c+CpUxhRKXtoez0xIQHacPvhCVMl/ZLNQXhRgRJbeyKKbzJMKUHTyW/7p6obYw+AQZGYSAEqawO1dmWA6Wg6gcRHSKx4RzihNP7Sk5Pfen2WAZeNo2a0eB0ErxfkgktcRNoXeo+mfkYQkBExIhoN6iXZ3iNNK/sfBo6OdRKsSJwb8eMo1PrKOVbyskKzVSkjMFhlF0Kt8hostSQzOsRDo8xWnkQNXcQ2m+Qeu/S+JZzpx+emFtWLglztYEEjEF/339Ce6E+3RvLxbpZmJ+qFmoLwi6Rq9TPs+A8f2g4zUdJ48vx1C42E1h8mB5/xyM5UT4cAz5ab1E0FOcSoPVq0G4VOtkxxfvtDB0hDT6HR9UtyNiNYXewfJCg+gu3duLdQu9zfljn+LEoKJbuTuVT3xuAcl/noMM76RmftWyNtnJ8A4IxGMKjHzJrdwIkPye3EGRgFFOcfJbtjm8jAif6iikRpM88i7tMxvXaiRZa6mRm0KJZ+wOd/jml4avOytUW8Zqx8KR66lmj7R8zz8G0CcUUhiJFAbfZlt17XtVRgInoqDRm4Jb+TqY5BHUEArIjFdaBp+aY/wDgfYLIaTaIdq82ap2Mvqoi9wUfBSlwfKVIONyfbCI0qQJMPh52xz4uPZH5ScNsoP1YzEFX1caDwXtgLdMCUKA+bWW5c6SZxGCwAp/TGymIMYQfvHSGJHBG5mHDu4rrFmZxvx0yClWU/CB9DrlzxPo9hR1HdKhzlpoZHAL5M2Vk5OSLVfspjByj6HyOSb4Jyolsn6yyGX1sQh4wJl9Vs3vbC2fBAkk9k/ZO1T+c/JoSZbOTUiwzsov7bF3dV+h8XXlhWZAYGKmMPyNYeQAkKUE5DPAWlIcg4B0glZrayRqCsM3H93yscTGcgCmWmhETRwEGPysbdYPlk7QcdAOtkbipuDLnOKWP5ljejjJFvLBcMmoMAn4D2MZFs9+jeqvhxlXYnVHQAlTGL6UcMuHMhuPEbBDdynJbD0I8JuuSXPWUW21Hnqzo1IZUxi+lHCqswD+Rdq6FmVnOwXO1GVqzZOfHgPzinWgUqYwfCkxWNkvR7QizacHxVphBRfz2PtsX6HhH7IjHwUJKGcKw98YeJ8qubmn3m1ttpuCzERSNwSYv9Us1K/oJoTMjZaAkqbgpzyJp03Pu+YzBJocLQKJHiOBJU2rdkqM68lSHRBQ1hT8XHq5MtVw8AyISh3kJlMUIsDACtuszQNhSCFZImUUAkqbgq+3xNP2YMd6mgh7SgU1JcBY41jerPXU2KhpBpmSrbwp+NXYnatF0+FniGivTFUnBckyeD2ZzuwmvfjbFKSTiRS0MIWRS4npk8jJryCiSiYqk4okeYDBh9tW479SkU5GktDGFPx67MJ7T9zOtVYAtH9G6qN1mmzwyXa+7ncPl49GBLQyhZFLifKOpkv+A06zNeKcPansfbtZaHwze4nrn7F2pjBy87G0PdyJT8oJ0YpuQOaHm4X68YqqE1njENDSFIZz4qk9RXe7xwk4XKqsEgF+rmkOHCQHrqpUk/a06GsKw8Yw0yq5/CiAee2lLaOjIMCMvpY18NG19FJ/FPElZjwE9DaFYWNA/t0XqfzelKnvlBTPluh0FR5sMeb0F+rPdxpB5qlBQH9TGDGGXNGpLiXCZ9TAmj0V8ktDemqeDlMYMQYqOdUlIPxFesqjSSbMVzYL9UWaqBWZqb3ROEZiRaf6IwLOksrHQ4CZf2oX6ifHs5qsEgeB9HxT2IJWyal+H8B5cQDM8hrMWGlbm2bLLw3p2gWpNAW/REWneiMBF6WrXOpkw+B1g+bQrA205lV1VImSMAik1hR8OKXByhUgkmvdMHbK1jFchneIvNMQPlgVIqbaFEa+MZQvJBg3qQA7LRqYvdPtQmNxWvKRPLYmkHpT2GwM5xKMH0jxuyfA4Jttq35h95EkgqoEMmEKPnxpbBvGFuRfNM360SB4YUSTGGoSyIwpbL7HII1tO9yHzPySa/EBcnpShwA1mpYpUxj+xiCNbdvengy8PWRiljRuaRudlhMyZwrD3xiGZpwAL/eAlhVLQLRntD7dl1/1swSWliUTIJBJU/A5b+5f+ShAhQS4a7MkE3/DNuvf1UawCO2aQGZNYfgbgzvjMLDxuDS2HX0fMWOZXaid2PUukwBaEci0KQx/Y3D2OchA/kkCJmhVuajFMjea1sBH5RHmqEGrFz/zpuCXRBrbfnBj8pstkz/WT42X1NuyoihqAmIKmwlLY9sREAz2POI/7TcbP49680l8NQmIKWxRF2lsC4DwtaZZu0bN7Sqq4iAgpvAByllubCs3FuP4l1N/DTGFUWrkN7Ylh/49S/0rGfxr2xyYIzcW1f+njVqhmMIYhDPWv3LDgOkeIGcjRP3vpkd8MYVt1GkKT5ucc8wVICrrUc7OVLaodXS/ucpvriMfIQAxhXE2wU48c9cJDj9FhJmp3C/ElzXN+lWpzE2S6oiAmEIAbKltbMv8SLNQPy4AAhmSIQJiCgGLnbrGtowXWtaGA/qp//cBEciwjBAQU2ij0GlpbMvAO2R6s5rUaLSRvgzNCAExhXYLnYLGtmzgJDtfk1fH2619RsaLKXRSaK0b2/KtTat+QSdpy5xsEBBT6LTOI41tf6JT/0oGP2ub9TlyxmKnRc/GPDGFbuqsV//KDY6Jj6ynmt1NyjI3/QTEFEKocdGp3EOg00IIFUkI/81HkHeUba56KpIFJGiqCIgphFTOolP5IYHOCSlcqGE88i7tMxvXhhpUgqWWgJhCiKVVsbEtMz9uF+rHhJimhEo5ATGFkAusVGNb5tc2Wc6+b9CLb4acpoRLMQExhQiKW3Iri8B0RQShA4dkYAjAQbZVezbwJBkoBIbP2ZFPJASSbmzLxBfbZv2GSJKToKkmIKYQYXmLTjmRxrZyHyHComYgtJhCxEWOvbGt3EeIuKLpDy+mEEON4+pfKfcRYihmBpYQU4ipyKWh8gL2jKUE5KNakoGv2FbtxqjiS9xsEBBTiLHORbd8LLGxHIAZ9rJyHyFsotmNJ6YQc+0jaWwr9xFirmK6lxNTSKC+vW55rsHkd7zuCWN5D62D+qxVvwojlsQQAmIKCe2BsBrbynsNCRUwxcuKKSRY3BAa2z7ZtGpHJ5iCLJ1CAmIKCRe108a2DF5vmKi8RvXXE05Blk8ZATEFBQrqN7aFm/s3Ak0OIofB7BEfLZ2hg9CSMe0SEFNol1hE4/3+lYaDZ0BUGncJxjXNQu1r446TAUKgAwJiCh1Ai2pKiaftwY719DiNbf+3adYOBKEVlQ6Jm20CYgqK1X9bjW0ZvBEm7WdT7RXFZIucFBEQU1CwmL08fZLhmM+AsM9W8ozWic38qmUKShZJKSIgpqBoMUdpbHtH06qdpahckZUiAmIKChfzvca2TNsZ1sYDXqVXNyksV6SlhICYguKF9I2hB7mSTatriksVeSkhIKaQkkJKGkIgLAJiCmGRlDhCICUExBRSUkhJQwiERUBMISySEkcIpISAmEJKCilpCIGwCIgphEVS4giBlBAQU0hJISUNIRAWATGFsEhKHCGQEgJiCikppKQhBMIiIKYQFkmJIwRSQkBMISWFlDSEQFgExBTCIilxhEBKCPw/W1Y9MuO8p1oAAAAASUVORK5CYII=" vertex="1" parent="1">
          <mxGeometry x="346.95" y="690" width="26.1" height="20" as="geometry" />
        </mxCell>
        <mxCell id="nGL3_lGxGscLZ1-xO2Rq-18" value="" style="endArrow=classic;startArrow=classic;html=1;rounded=0;entryX=0;entryY=0.25;entryDx=0;entryDy=0;exitX=0.5;exitY=1;exitDx=0;exitDy=0;dashed=1;" edge="1" parent="1" source="nGL3_lGxGscLZ1-xO2Rq-25" target="nGL3_lGxGscLZ1-xO2Rq-6">
          <mxGeometry width="50" height="50" relative="1" as="geometry">
            <mxPoint x="490" y="810" as="sourcePoint" />
            <mxPoint x="610" y="770" as="targetPoint" />
          </mxGeometry>
        </mxCell>
        <mxCell id="nGL3_lGxGscLZ1-xO2Rq-19" value="" style="endArrow=classic;startArrow=classic;html=1;rounded=0;exitX=1;exitY=0.25;exitDx=0;exitDy=0;dashed=1;entryX=0.5;entryY=1;entryDx=0;entryDy=0;" edge="1" parent="1" source="nGL3_lGxGscLZ1-xO2Rq-6" target="nGL3_lGxGscLZ1-xO2Rq-27">
          <mxGeometry width="50" height="50" relative="1" as="geometry">
            <mxPoint x="500" y="820" as="sourcePoint" />
            <mxPoint x="540" y="840" as="targetPoint" />
          </mxGeometry>
        </mxCell>
        <mxCell id="nGL3_lGxGscLZ1-xO2Rq-20" value="" style="shape=image;verticalLabelPosition=bottom;verticalAlign=top;imageAspect=0;aspect=fixed;image=data:image/png,iVBORw0KGgoAAAANSUhEUgAAAMgAAADICAYAAACtWK6eAAAAAXNSR0IArs4c6QAAHC9JREFUeF7tXXmcHFW1/k51V01IQgQUskxXh0BmuhtD2B+bCLJEQBK2GEREROThygNEZXEDRJEdFUEURRBQBJFNFAQUHgEeCCiB7s6QBLpmQthJCCRTt7vOozqT/JIwS1f1raWr7/ybe75zznful666de+5BPWnGFAMDMkAKW4UA4qBoRlQAlGzQzEwDANKIGp6KAaUQNQcUAz4Y0D9gvjjTVm1CQNKIG1SaJWmPwaUQPzxpqzahAElkDYptErTHwNKIP54U1ZtwoASSJsUWqXpjwElEH+8Kas2YUAJpE0KrdL0x4ASiD/elFWbMKAE0iaFVmn6Y0AJxB9vyqpNGFACaZNCqzT9MaAE4o83ZdUmDCiBtEmhVZr+GFAC8cebsmoTBpRA2qTQcUmzZKa/A1SvzltYHJeYhotDCaQVqpSQGIud6IamP0uE3+cr4uhWSEsJpBWqlJAYi1l9LoF2ddPRarxdd594Ou6pKYHEvUIJia9k6seC6Ner02HmRwuWqIslzn9KIHGuTkJiszLY5B1NXwDQRmunxE5tdqG3dkuc01QCiXN1EhJb0dSvIaJj1k+HgRfzFXsqAdW4pqoEEtfKJCSunk59l1qKHhkqHWbn1IJVvSiu6SqBxLUyCYiLgVQ5azwLIDd0OrysY5mYPOUtvBXHlBMrEPe5913oh4/SxM2TK3gzjuQnPab6Nw/Szh4pTwL/NFcRJ440Lop/T5RAXsxi45WOPtshfBLAx4goDeAFVO3984tRjoLgdvVZnIDNydBLAHWMyAFzLQWR67KwYMSxIQ9oeYG4oljh6Icx0RyA9x4QxTo0MvNyjZ05ud7a3SHz27buSqb+AIj2apgAxh15y57V8PiQBrakQBZsjA+IsfrhAH2SwfsOJor38cfMDP52war+MCRu29ZNKWMcBQ2/80qAxs6e3Vb1Qa92QY5vGYG4orDH6ocSaA4T70sg3RcxjNvGsH2k2YsVvuyV0bAMDNRpARF90CtVDDxXqNgf9moX5PhYC6RnE4xzxuqHsisK8H6+RbEeg8w8L+2IA7r60Bskue2IXczqVxHoeN+5Mx+Xt8SaL+6+cSQZxk4g8zbFWH0D/VAH9XeKGQQyJOW6/nvJ63B4ZqGvOuQafRB+k4w50jePhnJnfnUMi8lx+YWPhUBcUaQ7jENAmAPiGQ2tfDTE9vCDGCyIcWLeEldKgGtriMa+eTRGEQNnFyr29xobHeyoyASyZDzGvKkbB9MqUewfligGpZP5NzlLHE9ALVi6k4tezqS/y5p2lpwMud8hMWWrF/GSHDz/KKEKpC4Kw5hFWCOKUf5Dl23Jc8c4YqbZizdkIycdr5gxtgbxkw2tJjZIBjNfW7DE+/ZvNWgubVjgAlk8CaPfThkzHWAOgQ8A0QbSopcNxLA0h2e1wjkF2an7xRt4tJoHIO8XYyi7OJwZCUQgriiWpY2D3lu2m0PMB8ZaFO+rDq9EzTk631e7WXbBk4hXMo0fgHBmELnF4cyIdIGUsvqJAF0WBGGhYjLOzVv2t0P12WLOSqa+I4geDzJs4tqhOav25yB9DIctXSAMUNk9PQacB6JNo0pMil/GbSnLPqIL6JeClyAQBvRy1vhPEI9Wa9MU9ZkR6QJZnVzpQ9gQo/UfgPEVEKVadm4wP7EBiRlqR/C6FSxljfMBfCOMuhLzKTlLXBKGr/V9BCaQNUKZhBzS+tUA7R5FglJ8MhZoZM/ormChFLwWB+mZqG9fS+MJEAU+f1ZRFd2ZkZASBMqmcQQDF4KQacX5wcxvpB18oqtPPNqK8cuKuQfoqJnGsyBsKQuzIRyHL8v3ipMaGitxUGgCcWN2V7eWpoxvg/jrQW0hkcjNIFDcj5rzmXZe4Spl9Euh0f8Ey/Ng1EdzZiRUgax57BqPKejQfwnQPqET3azDVdvmv1mwqhc2C9Vq9sXO9K6k0cPhPVqtxxDjtrxlHxImb5EIZHWCxWzqIOLUpaH/XMtgmPmKnCW+QgDLgIs7hvtoVTWN+UTIRhlr2GdGIhWIS/SqZ9r0qQw6g4hGR0m+Z9+Mu8ewfXhcdp56jt+DQcnULwfRlz2YBDI07DMjkQtkNYs9ncjUUsbFQP08eQv98dNUFfvlFuO1FgraU6g9mfSeNU37hyejAAcz87EFS1wToIs10LERyJrHrknp3SitXR30ByiZ5Lofs1CzZxT6MF8mbhyw6gsraeN5AibGIZ56DMyvVi2RmQbYQccUO4GsTrhs6ic7wNlENDZoEuTg8zJiPihnVR+SgxcPlKKp/5aIPhuPaNaJYk6+Yv8x6LhiKxA38fIkfAgp/QIGjols5cRDBeoHsGrOp5OyDFw2U4cwpW71QEFIQ/nhXEXsEcYCSawFss5jV0r7PQhmSBXw78ZdBiY+s1Cp/sg/SPSWCydisq3rzwC0YfTRrB0Bv5XuF7mpL+OVMOJqCYG4RNQPW3XoFxPov8MgpmkfzFfkLRH5qo+fPFad8dCfAGhbP/ZB2jA7+xes6t+C9LE2dssIZM27SWd6HydF1xNofFgk+ffD1+cq4phWO8pbzBg/Ig2n+c87GEtmvqRgiVOCQR8cteUE4qaxaCNs1D9O/ylAnwmTLF++GHdXLfuQMFZcfMW3nlEpm94dTA/F7p2P+d85S+wQ9n82LSmQ1TUtZdL7g+ja2J87YX5oXE3sP2kx3pUxiYPCqDd929AoETAhKB/+cPltQ4itt3gJL/qz92/V0gJx06735mXjGhBi19d1nVdL8L+Mt8U+W76Jpf7LFaxlKWvcBeDAYL34QOfawXmrdrsPy6ZNWl4gqxkomsaRIL6cQBs3zUpAAO42CSZ73zi0s1k/xWJG/ypp9NOAUvcPy3x13hJf8A/QnGViBOLS8Px4bCY6dPcFft/maAnOmhkVCHvPwhK8EJwXb8g9WWOrKvipuB1BYMbzacueFuWR50QJZM27ial/HoRLABrnbaqENZpf0YTYq/slFMPyOJSfgV26zxChK+pY1vXPKzUhto+ao0QKxCW6vvlR06/zdEdFqDOE30oJ7NP1kngyVLfrOSuZ+pUgOiHKGAbzzeATChVxVdRxJVYgq4ktm/pXHOD8OG6lZ+Z3yOFZ+b7q/VFMhHImdQBrqb9E4XtYnxEcjBoqnsQLxE3c3TbRn9b/QEQ7x20yrGqg7cwOe5Vm4WYYb4+qX5G2zt3lMeDnheoKe+tpr2J5DGJBWwjEJfq9juFaOZP+OjQ6J9JG2YM+T7DDTEcXeu0bwpgUA73LHgTRR8Lw17gP7k+Bduiq2O7NuLH4axuBrGa72Ilu0vSbQLRNLCqwOgj3qDvw5TCuYiibxrlMOCNW+a8K5oh8xb4pTnG1nUAGfk3S5Yx+YSTdOUasvnNavlL98YjDfA4oZ1IHspZyPwjG6o+ZLypY4tRYBQW0zyPWYMQXM6nDQZp7IGhMvAoTjEjmZ7FFjfV/x+8QGt+Xq4j9wjjf4bXObfkLsjZJz2cwVZDxl/h9B5ArEiuDDd7RDHdJWfo1BV4n3TrjGVbqHXta1xtY1hROQMZtLxCX1/p1DSnjxrjt5yLH+V6ut3q2jNoXTeMWIhwmA0saBvOKFNFOcXopXz83JZC1GCll9ZOYcYHMm5KanUzs4LxCr316MzhlM30Kk3ZRMxiB2HLtkLxVuy0QbEmgSiDrEel2D0RK+1Octnw3I5Kymd6DQQ/ErcN+MzlJmvsNwSiBDEKT2yyC0/ptAO3WEIshDPIzoZ6bjInk6POIaJMQQvTgIr4v5eoRq8EyDty95zZeCOUOjEbC8iISBtKlrP4YgbZvBDvEMQtTy+3t4vpSrgTicSYUs6mZBO362HT3YL40b4mTR0qjZOo/B9GXRhoX5r8z83I4YodWarCnHrEamCHFCdicDMPd1FdoYHjwQ0YQiXt4jAihbFvxlKzjHJDvrf7Vk03Eg5VAGizAos0xqt8xrgMwu0GTYIcNIZLnTGOaRuy27OkINgBv6AznjFbsFaYE4q3OqG+fJ1xCIN2jqfzh6/Xe6tkE46pjDPfwU6RXFKyfKDP/tmCJz8knIHhEJRAfHJdNfScG3QpCpw9zuSZriaSY1e+N23FjBv89XxEfJ8CRm3g4aEogPnkeWAr+A0B7+4SQZsZcb1bxBgjfkQYqAYjBT23cL/aY8DLekQAXCYQSSBO0u2dM5pvGOQw+PXaN1prIS4opoy9t29uH1UNXSsyDgCiBSGC21JmazSnthli8l0jIp3kIXoaq+K/8YpSbx4oWQQlEEv/zzfRHHaLbAfqAJMiWhHGPEGvM+yTlnhQlEInTcNVpReO+Vr0LXhIVsTsV2ExeSiDNsDeIrdsMob9Dv4+IPiwZOv5w7Hw3b1XPiX+gjUeoBNI4Vw2PnLcpxqZG6XcS0Z4NG7X4wFb+1jEc9UogAU1Md7NgOWu42z1a7NZe74S0+rcOJRDvNZdmEdfLaKQlyPzMuJrYJe5XO/jNV/2C+GXOg13J1L8I4HIQaR7MYj+UwS/r/WJ6q3/rUL8gMZhq9ct+NLoVoFExCKfpEJj5Da0mds8tRqlpsBgDqF+QEItTzOo7gHFP/E74eSWBl7JDexR67We8WrbaeCWQkCtW700F434CJofsWoo7Zn43XcUeUXell5JMAyBKIA2QJHvIwEbHe+N4zfLwufJKYp6RlK/kjdRVCaQRlgIYU2/kRsYtIBwQALx0SGauag7vn+ur3icdPMaASiARFmegy/qvQPT5CMMY2TVzDXAOj3sPq5ET8T5CCcQ7Z9ItSmb6OyBNSgdF6cG5XeeJPhW3ruvS8xwCUAkkLKZH8FPMGJ8mYvfO91RMQqqHQQ4fn+sVv4pTTGHGogQSJtsjicTUH43TLVjEfErOEpfEiKLQQ1ECCZ3ywR2Wsvp1AH0mJuG4N3KdVajY349LPFHFoQQSFfNr+S2ZxgUgxObyGGb+WcESX4sBNZGHoAQScQnKpn4yE10ccRhruy/nK3a87hCJkBwlkAjJL2WMo6DhdxGGMKhrBn+xUBG/iFtcUcSjBBIF6wBie0f5AB9cdXYvLK7OjYie2LhVAomgFPU7O4juiffOXn7FIbHtVi/ipQgoio1LJZCQSzE/o+9cI9xPRKNDdu3ZHYOfrFXErtMA27NxQgyUQEIsZDFjbA3iufG7ZXYYEphvyFviqBBpipUrJZCQylGehLyT0h9uzbMgfFK+Ii4LiapYuVECCaEc7lXTVdLngmjTENzJd8FcI/DH2mmb+2oSlUDkT6d1EHs6kammjP8jYGLArgKFd4/Y6jWx7dTFsAJ1FDNwJZAAC7JoU0zo38Bwl0qnBOgmPGjmZ8aw2NnsxYrwnEbrSQkkIP7dU4NOyphLhK6AXEQCy4w/FSz78EicR+BUCSQA0t2bnmpjjUdjc6eh5BwJzum5SvU8ybCxhFMCkVyWJeMx5s0O/Z8E2kEydHzgmB1yeEY7HL9VApE47dxz5stJdz8C7iIRNqZQvFSD2L67goUxDVBKWEogUmgEeoCOqqm7Pa8+KgmyFWBKG/XbO7byFWsjkawEMhJDDf57yTT+Eo8OJfwAQB9rMOymhzFwZ6Fiz2waKKYASiBNFsa9p7Bs1tv3HNIkVPPmjHPylv3dsLfRJ/n0oRJIE9NyoG3PjSA6ogmYpk0ZbFPNOSrfV7t5NVgpk/4mNO3HTYM3AsDMGnivbqv6YCPDW2mMEojPatXFkTX+EPX9H8z8OgH75y3xxPqpFE39IiI6xWeKnswYeGnUMnurKW/hLU+GMR+sBOKjQAykBh6rDvZhLtOklKrZ+3X1oXco0FCbQTDuyFv2LJkJRo2lBOKxAvMAI20af476hdy91WnjfnHISCtIA+9It4IQysRl5mMLlrjGI62xHa4E4qE0izbHqP6afg+I9vBgJn+ow5flesUpBDiNgDOgl039fhB9pJHxzYxh5nfSjsgP96vWDH7YtkogDTK+eBJGL03Vb6+N7iMgc42BL/j5H3rgYtFHiGhagyn7HsbMj+YtsRvBba/V2n9KIA3Ub8HG+IC9oX5ftNtHeJnGPLOZlaLnx2OzqmHMBWHLBtJuash7E+v7uYp9VlMgMTBWAhmhCFYGmyzXjIcI2CrCer2QYnvfLgsLmo3h+UkwRVp/nEDjm8Ua1p7ZSdWwY9di8VSgfgIGVwIZhuCeCdi0qhsPR7tlned2LBOfkLl82pM1PlwD/y9AGwU8vxaOq9pbt/INuEogQ8wQ93/aatr4Z7SHnfj6XEUcQ0BN9kQum/pOTHgw8NZDzL/OW+I42fGHhacEMgjTxQnYnHTjYRAmhVWIdfwwO2A+Ld9bvSBI/0Uz/XGA7iSidJB+GLWZhUrtziB9BIWtBLIes/UGC5r+MECbBUX6cLjuJZkaO7NzvbW7w/BfNI0jiXBDkL4Y/OaoFWKrKa9iSZB+gsBWAlmL1YG+VQ8Q0QeDIHtETMbiFGFGV8V+dsSxEgcUM8aPSMNpEiHfB8XM/yxYYq8gfQSBrQQywGrPRH37mg53q/i4IIgeCZPBT6Vt8fGuJXh1pLFB/Hsxa9xMQKBnzVvxQh4lEAAD7UDdj4Bjgph8I2IybktZ9hFdQP+IYwMasGoLjf4wiHYMyAXcXcfMtMNWlj0vKB+ycdteIKXO9N7Q6E4QbSCb3IbwBs5wNDQ24EHFTnyQNONpEDIBuirnKvbWBIgAfUiDbmuBlDpTszml3UAgXRqjDQPx2wznqEKldkfDJiEMdFukclp/LNBHTeZL85Y4OYR0mnbRtgIpZ9OnMdMPQRQFB0W27QMLS/BC0xUMAGC+mf6oA3I3NwZ2467Gzp7NbJsJIO1BIaOYHGHlNqifgVOAvwLR5yMJhPmGjpQ4bsoLWBmJ/wadFk39c0T0mwaHex/GsDpSdnfceWgrgbhted6h+vnxA7xXtFkLXkkOTsz1il82ixSWfSlrnA/gGwH6Oz9fsb8VIH7T0G0jELcVKKf1ewHatmnWvAMschizWmn1ZnWKxaxxBwEHeU95ZAsGC9TEtEIf5o88OpoRbSGQ+VlsUYNxPwGTQ6eZcXd1pT1n2qtYHrpvCQ4HDok9FNzyL8/NV8TuEkINBCLxAunp1Hepargr7ItrmLlKzGfme6vuY0pL/wW9/EvgY3IVcW0cSUq0QEpmahZIuwmgjjDJZ2AJas5hhb7qI2H6DdLXwA1ZTwTyMZX5NX25mLrlm1gaZA5+sBMrkLKpn8zAhSDS/BDj34bnUlUcnFuM1/xjxNOynEkdyKS5H1XlzxvmK/KW+HLcMpefaAwyLJn6z0H0pVBDYWYQnZ+r2GcGcX4j1FyGcVbMGme91yziu9LjYWYm7FSoiH9Jx24CMFECGWjJcxMIIfer4qVw+FP53upfm6hFy5gWs/q9BNpXesDMz+QtMV06bhOAiRHIi1ls/C70uwi0axN8eDZ1d+HqVXFwO93d514QVB1jPEOErGfCRjAg5q/mLHG5bFy/eIkQyIJJyIqUcX8Y3TrWJprBV9Uq4mvTANtvAVrV7jnTmEbgx4hotNwc+G2uiSmFPrwuF9cfWssLpJjVdyDG3aFescy8gkHHFSz7Rn+0J8OqnEkdylrqT/Kz4d/lK+Jo+bjeEVtaIKsKpN0Y5jIuM3q0mj0rtxgl73Qnz6Jo6hcTkfSduVxzdovDMnlLCqTebzZr/BBAuPt4GLePq9lHtnIbG9kSdWtRMnX3mLLsm7XccyPTCKjKjtkLXssJpPQhbIjR+p8B2ttLos2MdfvNaoyTW2mjYTP5erV1F0hWsDFPdheYONym21ICcfdUOWzcE+rLOPPjsMUR+ZexyOvEaafxPZP07appPCb18BnzipQjuqNshN0yAima6RlE9MdAT7qtNaPdvVQa8zndvdVzk/zhT6aIyxn9eNboKpmYYNyWt+zIrrdrCYEUs+nTiekHYW0bcV/EUw7P6e4TT0stdhuAlUz91yA6VmqqjnNAVB9hYy0Q98t4yjRuJMJhUgkfDoz5yo6UODnuJ91C48OjIwbSpazuPmpt79F0uOGLchV7aqP3oUj0i9gKpJxBJ5N+F4i2kZnw0Fj8CjN/tmBV/xaOv+R6eW4yJpKjz5N5xIDBXyxUxC/CZi2WAhnoU+We4QinwyHjjjFsf87sxRthFyCp/sqd6X1Yo3tl7fxl8Mvpipgcdu+w2AmkZOpfYsJlUldDhpiFzLycGCfle8XVSZ2oUeZVyhrnyfxWFcWyb2wEUr85Nqv/BqBwthgwP67XxOwtF6MS5SRKsm+3pqVs/bKe7eTkyUtTy0W26w0sk4M3MkosBFK/xYl095Eq8Pv/3EYBxHxWzqqep5ZvR54gzY6oXyVh6P8BaMNmsQbsQ+2EErlAShljOgh3Bdzuss6tWr6VNEU9wszPpA5ztNQtHs2GejBeme4Xk6e+jFfk4A2PEr1AskZIN6HyTzo08S21fBvGtHq/j5Kpu836pNw05R4zKFTECWFkEqlA6ltHYDR9MeVwRLkNFKjmHJXvq94fBqHKx+AMrLpG23jqvct6upvmyL0OW4ipYbRujVQgZTO9B5P2YNOEDQXAuENfbh8dx24ZgeUcY2D38tAq+EkCGRLCvDlfsT8pAWdYiIgFYnyKCQEcOuK3mXFiwRLXBE2gwvfGQDGjf400+ok3q8FHO4ytg+5WGalAimb6VCJN8kWVPFeviiPV8q2MKRgMRjFr3EnAJ5pH5/vyFSG/ecRagUUqkJKpXwKik5onqr5G9TY7ODPfK35GQEgv/nIibzeURRtho5XjjCIBE5rNXYOzX3el+vdmcYayj1YgWeMmAE0/RzJw16gV9hda8RbVoAobd9z6+yfoH03v0A64VVDEAqlft7yb72Iy+jSundjdWwugcYDvqJRhgwxIbEI3J1+x/9igW0/DIhVI0TRe9NVbidkBcCVWiNPyr+FtTxmrwbFhwL3MqGTqjxDRzk0GFdh2+IgFogsiSnskp8jgo+PWotJjDmr4AANu04eeichx2pjuANuAMJ0Y7u4K0wtJDD6hUBFyTzMC0Z0HWbgZxtujjCWNk8ArmfmcvFW9oFVuSG08NzVyfQbc7o08Jr1tjWkb0jAdjOkMTBuqUV1Q2+Ej+wWpN3wDPdHY1OAH0C+OU40TGmMrqaPqj2Sd6CKkpkNLuT183V+a6WDevH7uxHG+Jfs+lggFkppJSN0+XDGZ+XWNcEpcL1dJ6kRstbzmbYqx6Q3S2xBoi1xFXCcz/sgE4h6MAtHPh0qGma8dTeKkyRW8KTNhhaUY8MJAZAIpm8a5TDhjkGAXsuMcV+it/sNLImqsYiAIBiITSNHUryGiY1YnVb/xlOnCtGWfFfa54yCIVZjJYCA6gax9CQvzE1QTR6uG0MmYVEnKIjKBlLJGEeBJxDi92xJXqP1TSZpWycklMoG4j1ijVorT1P6p5EymJGYSmUCSSKbKKXkMKIEkr6YqI4kMKIFIJFNBJY8BJZDk1VRlJJEBJRCJZCqo5DGgBJK8mqqMJDKgBCKRTAWVPAaUQJJXU5WRRAaUQCSSqaCSx4ASSPJqqjKSyIASiEQyFVTyGFACSV5NVUYSGVACkUimgkoeA0ogyaupykgiA0ogEslUUMljQAkkeTVVGUlkQAlEIpkKKnkMKIEkr6YqI4kMKIFIJFNBJY8BJZDk1VRlJJGB/wfiOSFQwP3tjAAAAABJRU5ErkJggg==" vertex="1" parent="1">
          <mxGeometry x="440" y="820" width="20" height="20" as="geometry" />
        </mxCell>
        <mxCell id="nGL3_lGxGscLZ1-xO2Rq-21" value="" style="shape=image;verticalLabelPosition=bottom;verticalAlign=top;imageAspect=0;aspect=fixed;image=data:image/png,iVBORw0KGgoAAAANSUhEUgAAAMgAAADICAYAAACtWK6eAAAAAXNSR0IArs4c6QAAHC9JREFUeF7tXXmcHFW1/k51V01IQgQUskxXh0BmuhtD2B+bCLJEQBK2GEREROThygNEZXEDRJEdFUEURRBQBJFNFAQUHgEeCCiB7s6QBLpmQthJCCRTt7vOozqT/JIwS1f1raWr7/ybe75zznful666de+5BPWnGFAMDMkAKW4UA4qBoRlQAlGzQzEwDANKIGp6KAaUQNQcUAz4Y0D9gvjjTVm1CQNKIG1SaJWmPwaUQPzxpqzahAElkDYptErTHwNKIP54U1ZtwoASSJsUWqXpjwElEH+8Kas2YUAJpE0KrdL0x4ASiD/elFWbMKAE0iaFVmn6Y0AJxB9vyqpNGFACaZNCqzT9MaAE4o83ZdUmDCiBtEmhVZr+GFAC8cebsmoTBpRA2qTQcUmzZKa/A1SvzltYHJeYhotDCaQVqpSQGIud6IamP0uE3+cr4uhWSEsJpBWqlJAYi1l9LoF2ddPRarxdd594Ou6pKYHEvUIJia9k6seC6Ner02HmRwuWqIslzn9KIHGuTkJiszLY5B1NXwDQRmunxE5tdqG3dkuc01QCiXN1EhJb0dSvIaJj1k+HgRfzFXsqAdW4pqoEEtfKJCSunk59l1qKHhkqHWbn1IJVvSiu6SqBxLUyCYiLgVQ5azwLIDd0OrysY5mYPOUtvBXHlBMrEPe5913oh4/SxM2TK3gzjuQnPab6Nw/Szh4pTwL/NFcRJ440Lop/T5RAXsxi45WOPtshfBLAx4goDeAFVO3984tRjoLgdvVZnIDNydBLAHWMyAFzLQWR67KwYMSxIQ9oeYG4oljh6Icx0RyA9x4QxTo0MvNyjZ05ud7a3SHz27buSqb+AIj2apgAxh15y57V8PiQBrakQBZsjA+IsfrhAH2SwfsOJor38cfMDP52war+MCRu29ZNKWMcBQ2/80qAxs6e3Vb1Qa92QY5vGYG4orDH6ocSaA4T70sg3RcxjNvGsH2k2YsVvuyV0bAMDNRpARF90CtVDDxXqNgf9moX5PhYC6RnE4xzxuqHsisK8H6+RbEeg8w8L+2IA7r60Bskue2IXczqVxHoeN+5Mx+Xt8SaL+6+cSQZxk4g8zbFWH0D/VAH9XeKGQQyJOW6/nvJ63B4ZqGvOuQafRB+k4w50jePhnJnfnUMi8lx+YWPhUBcUaQ7jENAmAPiGQ2tfDTE9vCDGCyIcWLeEldKgGtriMa+eTRGEQNnFyr29xobHeyoyASyZDzGvKkbB9MqUewfligGpZP5NzlLHE9ALVi6k4tezqS/y5p2lpwMud8hMWWrF/GSHDz/KKEKpC4Kw5hFWCOKUf5Dl23Jc8c4YqbZizdkIycdr5gxtgbxkw2tJjZIBjNfW7DE+/ZvNWgubVjgAlk8CaPfThkzHWAOgQ8A0QbSopcNxLA0h2e1wjkF2an7xRt4tJoHIO8XYyi7OJwZCUQgriiWpY2D3lu2m0PMB8ZaFO+rDq9EzTk631e7WXbBk4hXMo0fgHBmELnF4cyIdIGUsvqJAF0WBGGhYjLOzVv2t0P12WLOSqa+I4geDzJs4tqhOav25yB9DIctXSAMUNk9PQacB6JNo0pMil/GbSnLPqIL6JeClyAQBvRy1vhPEI9Wa9MU9ZkR6QJZnVzpQ9gQo/UfgPEVEKVadm4wP7EBiRlqR/C6FSxljfMBfCOMuhLzKTlLXBKGr/V9BCaQNUKZhBzS+tUA7R5FglJ8MhZoZM/ormChFLwWB+mZqG9fS+MJEAU+f1ZRFd2ZkZASBMqmcQQDF4KQacX5wcxvpB18oqtPPNqK8cuKuQfoqJnGsyBsKQuzIRyHL8v3ipMaGitxUGgCcWN2V7eWpoxvg/jrQW0hkcjNIFDcj5rzmXZe4Spl9Euh0f8Ey/Ng1EdzZiRUgax57BqPKejQfwnQPqET3azDVdvmv1mwqhc2C9Vq9sXO9K6k0cPhPVqtxxDjtrxlHxImb5EIZHWCxWzqIOLUpaH/XMtgmPmKnCW+QgDLgIs7hvtoVTWN+UTIRhlr2GdGIhWIS/SqZ9r0qQw6g4hGR0m+Z9+Mu8ewfXhcdp56jt+DQcnULwfRlz2YBDI07DMjkQtkNYs9ncjUUsbFQP08eQv98dNUFfvlFuO1FgraU6g9mfSeNU37hyejAAcz87EFS1wToIs10LERyJrHrknp3SitXR30ByiZ5Lofs1CzZxT6MF8mbhyw6gsraeN5AibGIZ56DMyvVi2RmQbYQccUO4GsTrhs6ic7wNlENDZoEuTg8zJiPihnVR+SgxcPlKKp/5aIPhuPaNaJYk6+Yv8x6LhiKxA38fIkfAgp/QIGjols5cRDBeoHsGrOp5OyDFw2U4cwpW71QEFIQ/nhXEXsEcYCSawFss5jV0r7PQhmSBXw78ZdBiY+s1Cp/sg/SPSWCydisq3rzwC0YfTRrB0Bv5XuF7mpL+OVMOJqCYG4RNQPW3XoFxPov8MgpmkfzFfkLRH5qo+fPFad8dCfAGhbP/ZB2jA7+xes6t+C9LE2dssIZM27SWd6HydF1xNofFgk+ffD1+cq4phWO8pbzBg/Ig2n+c87GEtmvqRgiVOCQR8cteUE4qaxaCNs1D9O/ylAnwmTLF++GHdXLfuQMFZcfMW3nlEpm94dTA/F7p2P+d85S+wQ9n82LSmQ1TUtZdL7g+ja2J87YX5oXE3sP2kx3pUxiYPCqDd929AoETAhKB/+cPltQ4itt3gJL/qz92/V0gJx06735mXjGhBi19d1nVdL8L+Mt8U+W76Jpf7LFaxlKWvcBeDAYL34QOfawXmrdrsPy6ZNWl4gqxkomsaRIL6cQBs3zUpAAO42CSZ73zi0s1k/xWJG/ypp9NOAUvcPy3x13hJf8A/QnGViBOLS8Px4bCY6dPcFft/maAnOmhkVCHvPwhK8EJwXb8g9WWOrKvipuB1BYMbzacueFuWR50QJZM27ial/HoRLABrnbaqENZpf0YTYq/slFMPyOJSfgV26zxChK+pY1vXPKzUhto+ao0QKxCW6vvlR06/zdEdFqDOE30oJ7NP1kngyVLfrOSuZ+pUgOiHKGAbzzeATChVxVdRxJVYgq4ktm/pXHOD8OG6lZ+Z3yOFZ+b7q/VFMhHImdQBrqb9E4XtYnxEcjBoqnsQLxE3c3TbRn9b/QEQ7x20yrGqg7cwOe5Vm4WYYb4+qX5G2zt3lMeDnheoKe+tpr2J5DGJBWwjEJfq9juFaOZP+OjQ6J9JG2YM+T7DDTEcXeu0bwpgUA73LHgTRR8Lw17gP7k+Bduiq2O7NuLH4axuBrGa72Ilu0vSbQLRNLCqwOgj3qDvw5TCuYiibxrlMOCNW+a8K5oh8xb4pTnG1nUAGfk3S5Yx+YSTdOUasvnNavlL98YjDfA4oZ1IHspZyPwjG6o+ZLypY4tRYBQW0zyPWYMQXM6nDQZp7IGhMvAoTjEjmZ7FFjfV/x+8QGt+Xq4j9wjjf4bXObfkLsjZJz2cwVZDxl/h9B5ArEiuDDd7RDHdJWfo1BV4n3TrjGVbqHXta1xtY1hROQMZtLxCX1/p1DSnjxrjt5yLH+V6ut3q2jNoXTeMWIhwmA0saBvOKFNFOcXopXz83JZC1GCll9ZOYcYHMm5KanUzs4LxCr316MzhlM30Kk3ZRMxiB2HLtkLxVuy0QbEmgSiDrEel2D0RK+1Octnw3I5Kymd6DQQ/ErcN+MzlJmvsNwSiBDEKT2yyC0/ptAO3WEIshDPIzoZ6bjInk6POIaJMQQvTgIr4v5eoRq8EyDty95zZeCOUOjEbC8iISBtKlrP4YgbZvBDvEMQtTy+3t4vpSrgTicSYUs6mZBO362HT3YL40b4mTR0qjZOo/B9GXRhoX5r8z83I4YodWarCnHrEamCHFCdicDMPd1FdoYHjwQ0YQiXt4jAihbFvxlKzjHJDvrf7Vk03Eg5VAGizAos0xqt8xrgMwu0GTYIcNIZLnTGOaRuy27OkINgBv6AznjFbsFaYE4q3OqG+fJ1xCIN2jqfzh6/Xe6tkE46pjDPfwU6RXFKyfKDP/tmCJz8knIHhEJRAfHJdNfScG3QpCpw9zuSZriaSY1e+N23FjBv89XxEfJ8CRm3g4aEogPnkeWAr+A0B7+4SQZsZcb1bxBgjfkQYqAYjBT23cL/aY8DLekQAXCYQSSBO0u2dM5pvGOQw+PXaN1prIS4opoy9t29uH1UNXSsyDgCiBSGC21JmazSnthli8l0jIp3kIXoaq+K/8YpSbx4oWQQlEEv/zzfRHHaLbAfqAJMiWhHGPEGvM+yTlnhQlEInTcNVpReO+Vr0LXhIVsTsV2ExeSiDNsDeIrdsMob9Dv4+IPiwZOv5w7Hw3b1XPiX+gjUeoBNI4Vw2PnLcpxqZG6XcS0Z4NG7X4wFb+1jEc9UogAU1Md7NgOWu42z1a7NZe74S0+rcOJRDvNZdmEdfLaKQlyPzMuJrYJe5XO/jNV/2C+GXOg13J1L8I4HIQaR7MYj+UwS/r/WJ6q3/rUL8gMZhq9ct+NLoVoFExCKfpEJj5Da0mds8tRqlpsBgDqF+QEItTzOo7gHFP/E74eSWBl7JDexR67We8WrbaeCWQkCtW700F434CJofsWoo7Zn43XcUeUXell5JMAyBKIA2QJHvIwEbHe+N4zfLwufJKYp6RlK/kjdRVCaQRlgIYU2/kRsYtIBwQALx0SGauag7vn+ur3icdPMaASiARFmegy/qvQPT5CMMY2TVzDXAOj3sPq5ET8T5CCcQ7Z9ItSmb6OyBNSgdF6cG5XeeJPhW3ruvS8xwCUAkkLKZH8FPMGJ8mYvfO91RMQqqHQQ4fn+sVv4pTTGHGogQSJtsjicTUH43TLVjEfErOEpfEiKLQQ1ECCZ3ywR2Wsvp1AH0mJuG4N3KdVajY349LPFHFoQQSFfNr+S2ZxgUgxObyGGb+WcESX4sBNZGHoAQScQnKpn4yE10ccRhruy/nK3a87hCJkBwlkAjJL2WMo6DhdxGGMKhrBn+xUBG/iFtcUcSjBBIF6wBie0f5AB9cdXYvLK7OjYie2LhVAomgFPU7O4juiffOXn7FIbHtVi/ipQgoio1LJZCQSzE/o+9cI9xPRKNDdu3ZHYOfrFXErtMA27NxQgyUQEIsZDFjbA3iufG7ZXYYEphvyFviqBBpipUrJZCQylGehLyT0h9uzbMgfFK+Ii4LiapYuVECCaEc7lXTVdLngmjTENzJd8FcI/DH2mmb+2oSlUDkT6d1EHs6kammjP8jYGLArgKFd4/Y6jWx7dTFsAJ1FDNwJZAAC7JoU0zo38Bwl0qnBOgmPGjmZ8aw2NnsxYrwnEbrSQkkIP7dU4NOyphLhK6AXEQCy4w/FSz78EicR+BUCSQA0t2bnmpjjUdjc6eh5BwJzum5SvU8ybCxhFMCkVyWJeMx5s0O/Z8E2kEydHzgmB1yeEY7HL9VApE47dxz5stJdz8C7iIRNqZQvFSD2L67goUxDVBKWEogUmgEeoCOqqm7Pa8+KgmyFWBKG/XbO7byFWsjkawEMhJDDf57yTT+Eo8OJfwAQB9rMOymhzFwZ6Fiz2waKKYASiBNFsa9p7Bs1tv3HNIkVPPmjHPylv3dsLfRJ/n0oRJIE9NyoG3PjSA6ogmYpk0ZbFPNOSrfV7t5NVgpk/4mNO3HTYM3AsDMGnivbqv6YCPDW2mMEojPatXFkTX+EPX9H8z8OgH75y3xxPqpFE39IiI6xWeKnswYeGnUMnurKW/hLU+GMR+sBOKjQAykBh6rDvZhLtOklKrZ+3X1oXco0FCbQTDuyFv2LJkJRo2lBOKxAvMAI20af476hdy91WnjfnHISCtIA+9It4IQysRl5mMLlrjGI62xHa4E4qE0izbHqP6afg+I9vBgJn+ow5flesUpBDiNgDOgl039fhB9pJHxzYxh5nfSjsgP96vWDH7YtkogDTK+eBJGL03Vb6+N7iMgc42BL/j5H3rgYtFHiGhagyn7HsbMj+YtsRvBba/V2n9KIA3Ub8HG+IC9oX5ftNtHeJnGPLOZlaLnx2OzqmHMBWHLBtJuash7E+v7uYp9VlMgMTBWAhmhCFYGmyzXjIcI2CrCer2QYnvfLgsLmo3h+UkwRVp/nEDjm8Ua1p7ZSdWwY9di8VSgfgIGVwIZhuCeCdi0qhsPR7tlned2LBOfkLl82pM1PlwD/y9AGwU8vxaOq9pbt/INuEogQ8wQ93/aatr4Z7SHnfj6XEUcQ0BN9kQum/pOTHgw8NZDzL/OW+I42fGHhacEMgjTxQnYnHTjYRAmhVWIdfwwO2A+Ld9bvSBI/0Uz/XGA7iSidJB+GLWZhUrtziB9BIWtBLIes/UGC5r+MECbBUX6cLjuJZkaO7NzvbW7w/BfNI0jiXBDkL4Y/OaoFWKrKa9iSZB+gsBWAlmL1YG+VQ8Q0QeDIHtETMbiFGFGV8V+dsSxEgcUM8aPSMNpEiHfB8XM/yxYYq8gfQSBrQQywGrPRH37mg53q/i4IIgeCZPBT6Vt8fGuJXh1pLFB/Hsxa9xMQKBnzVvxQh4lEAAD7UDdj4Bjgph8I2IybktZ9hFdQP+IYwMasGoLjf4wiHYMyAXcXcfMtMNWlj0vKB+ycdteIKXO9N7Q6E4QbSCb3IbwBs5wNDQ24EHFTnyQNONpEDIBuirnKvbWBIgAfUiDbmuBlDpTszml3UAgXRqjDQPx2wznqEKldkfDJiEMdFukclp/LNBHTeZL85Y4OYR0mnbRtgIpZ9OnMdMPQRQFB0W27QMLS/BC0xUMAGC+mf6oA3I3NwZ2467Gzp7NbJsJIO1BIaOYHGHlNqifgVOAvwLR5yMJhPmGjpQ4bsoLWBmJ/wadFk39c0T0mwaHex/GsDpSdnfceWgrgbhted6h+vnxA7xXtFkLXkkOTsz1il82ixSWfSlrnA/gGwH6Oz9fsb8VIH7T0G0jELcVKKf1ewHatmnWvAMschizWmn1ZnWKxaxxBwEHeU95ZAsGC9TEtEIf5o88OpoRbSGQ+VlsUYNxPwGTQ6eZcXd1pT1n2qtYHrpvCQ4HDok9FNzyL8/NV8TuEkINBCLxAunp1Hepargr7ItrmLlKzGfme6vuY0pL/wW9/EvgY3IVcW0cSUq0QEpmahZIuwmgjjDJZ2AJas5hhb7qI2H6DdLXwA1ZTwTyMZX5NX25mLrlm1gaZA5+sBMrkLKpn8zAhSDS/BDj34bnUlUcnFuM1/xjxNOynEkdyKS5H1XlzxvmK/KW+HLcMpefaAwyLJn6z0H0pVBDYWYQnZ+r2GcGcX4j1FyGcVbMGme91yziu9LjYWYm7FSoiH9Jx24CMFECGWjJcxMIIfer4qVw+FP53upfm6hFy5gWs/q9BNpXesDMz+QtMV06bhOAiRHIi1ls/C70uwi0axN8eDZ1d+HqVXFwO93d514QVB1jPEOErGfCRjAg5q/mLHG5bFy/eIkQyIJJyIqUcX8Y3TrWJprBV9Uq4mvTANtvAVrV7jnTmEbgx4hotNwc+G2uiSmFPrwuF9cfWssLpJjVdyDG3aFescy8gkHHFSz7Rn+0J8OqnEkdylrqT/Kz4d/lK+Jo+bjeEVtaIKsKpN0Y5jIuM3q0mj0rtxgl73Qnz6Jo6hcTkfSduVxzdovDMnlLCqTebzZr/BBAuPt4GLePq9lHtnIbG9kSdWtRMnX3mLLsm7XccyPTCKjKjtkLXssJpPQhbIjR+p8B2ttLos2MdfvNaoyTW2mjYTP5erV1F0hWsDFPdheYONym21ICcfdUOWzcE+rLOPPjsMUR+ZexyOvEaafxPZP07appPCb18BnzipQjuqNshN0yAima6RlE9MdAT7qtNaPdvVQa8zndvdVzk/zhT6aIyxn9eNboKpmYYNyWt+zIrrdrCYEUs+nTiekHYW0bcV/EUw7P6e4TT0stdhuAlUz91yA6VmqqjnNAVB9hYy0Q98t4yjRuJMJhUgkfDoz5yo6UODnuJ91C48OjIwbSpazuPmpt79F0uOGLchV7aqP3oUj0i9gKpJxBJ5N+F4i2kZnw0Fj8CjN/tmBV/xaOv+R6eW4yJpKjz5N5xIDBXyxUxC/CZi2WAhnoU+We4QinwyHjjjFsf87sxRthFyCp/sqd6X1Yo3tl7fxl8Mvpipgcdu+w2AmkZOpfYsJlUldDhpiFzLycGCfle8XVSZ2oUeZVyhrnyfxWFcWyb2wEUr85Nqv/BqBwthgwP67XxOwtF6MS5SRKsm+3pqVs/bKe7eTkyUtTy0W26w0sk4M3MkosBFK/xYl095Eq8Pv/3EYBxHxWzqqep5ZvR54gzY6oXyVh6P8BaMNmsQbsQ+2EErlAShljOgh3Bdzuss6tWr6VNEU9wszPpA5ztNQtHs2GejBeme4Xk6e+jFfk4A2PEr1AskZIN6HyTzo08S21fBvGtHq/j5Kpu836pNw05R4zKFTECWFkEqlA6ltHYDR9MeVwRLkNFKjmHJXvq94fBqHKx+AMrLpG23jqvct6upvmyL0OW4ipYbRujVQgZTO9B5P2YNOEDQXAuENfbh8dx24ZgeUcY2D38tAq+EkCGRLCvDlfsT8pAWdYiIgFYnyKCQEcOuK3mXFiwRLXBE2gwvfGQDGjf400+ok3q8FHO4ytg+5WGalAimb6VCJN8kWVPFeviiPV8q2MKRgMRjFr3EnAJ5pH5/vyFSG/ecRagUUqkJKpXwKik5onqr5G9TY7ODPfK35GQEgv/nIibzeURRtho5XjjCIBE5rNXYOzX3el+vdmcYayj1YgWeMmAE0/RzJw16gV9hda8RbVoAobd9z6+yfoH03v0A64VVDEAqlft7yb72Iy+jSundjdWwugcYDvqJRhgwxIbEI3J1+x/9igW0/DIhVI0TRe9NVbidkBcCVWiNPyr+FtTxmrwbFhwL3MqGTqjxDRzk0GFdh2+IgFogsiSnskp8jgo+PWotJjDmr4AANu04eeichx2pjuANuAMJ0Y7u4K0wtJDD6hUBFyTzMC0Z0HWbgZxtujjCWNk8ArmfmcvFW9oFVuSG08NzVyfQbc7o08Jr1tjWkb0jAdjOkMTBuqUV1Q2+Ej+wWpN3wDPdHY1OAH0C+OU40TGmMrqaPqj2Sd6CKkpkNLuT183V+a6WDevH7uxHG+Jfs+lggFkppJSN0+XDGZ+XWNcEpcL1dJ6kRstbzmbYqx6Q3S2xBoi1xFXCcz/sgE4h6MAtHPh0qGma8dTeKkyRW8KTNhhaUY8MJAZAIpm8a5TDhjkGAXsuMcV+it/sNLImqsYiAIBiITSNHUryGiY1YnVb/xlOnCtGWfFfa54yCIVZjJYCA6gax9CQvzE1QTR6uG0MmYVEnKIjKBlLJGEeBJxDi92xJXqP1TSZpWycklMoG4j1ijVorT1P6p5EymJGYSmUCSSKbKKXkMKIEkr6YqI4kMKIFIJFNBJY8BJZDk1VRlJJEBJRCJZCqo5DGgBJK8mqqMJDKgBCKRTAWVPAaUQJJXU5WRRAaUQCSSqaCSx4ASSPJqqjKSyIASiEQyFVTyGFACSV5NVUYSGVACkUimgkoeA0ogyaupykgiA0ogEslUUMljQAkkeTVVGUlkQAlEIpkKKnkMKIEkr6YqI4kMKIFIJFNBJY8BJZDk1VRlJJGB/wfiOSFQwP3tjAAAAABJRU5ErkJggg==" vertex="1" parent="1">
          <mxGeometry x="240" y="790" width="20" height="20" as="geometry" />
        </mxCell>
        <mxCell id="nGL3_lGxGscLZ1-xO2Rq-24" value="PUF-AOMDV" style="ellipse;whiteSpace=wrap;html=1;" vertex="1" parent="1">
          <mxGeometry x="307.5" y="565" width="105" height="90" as="geometry" />
        </mxCell>
        <mxCell id="nGL3_lGxGscLZ1-xO2Rq-25" value="UAV 3" style="text;html=1;align=center;verticalAlign=middle;whiteSpace=wrap;rounded=0;" vertex="1" parent="1">
          <mxGeometry x="170" y="710" width="60" height="30" as="geometry" />
        </mxCell>
        <mxCell id="nGL3_lGxGscLZ1-xO2Rq-27" value="UAV 4&lt;span style=&quot;color: rgba(0, 0, 0, 0); font-family: monospace; font-size: 0px; text-align: start; text-wrap-mode: nowrap;&quot;&gt;%3CmxGraphModel%3E%3Croot%3E%3CmxCell%20id%3D%220%22%2F%3E%3CmxCell%20id%3D%221%22%20parent%3D%220%22%2F%3E%3CmxCell%20id%3D%222%22%20value%3D%22UAV%201%22%20style%3D%22text%3Bhtml%3D1%3Balign%3Dcenter%3BverticalAlign%3Dmiddle%3BwhiteSpace%3Dwrap%3Brounded%3D0%3B%22%20vertex%3D%221%22%20parent%3D%221%22%3E%3CmxGeometry%20x%3D%22170%22%20y%3D%22710%22%20width%3D%2260%22%20height%3D%2230%22%20as%3D%22geometry%22%2F%3E%3C%2FmxCell%3E%3C%2Froot%3E%3C%2FmxGraphModel%3E&lt;/span&gt;" style="text;html=1;align=center;verticalAlign=middle;whiteSpace=wrap;rounded=0;" vertex="1" parent="1">
          <mxGeometry x="490" y="710" width="60" height="30" as="geometry" />
        </mxCell>
        <mxCell id="nGL3_lGxGscLZ1-xO2Rq-29" value="Attacker" style="text;html=1;align=center;verticalAlign=middle;whiteSpace=wrap;rounded=0;" vertex="1" parent="1">
          <mxGeometry x="330" y="890" width="60" height="30" as="geometry" />
        </mxCell>
        <mxCell id="nGL3_lGxGscLZ1-xO2Rq-31" value="" style="shape=image;verticalLabelPosition=bottom;verticalAlign=top;imageAspect=0;aspect=fixed;image=data:image/svg+xml,PHN2ZyB4bWxuczp4bGluaz0iaHR0cDovL3d3dy53My5vcmcvMTk5OS94bGluayIgeG1sbnM9Imh0dHA6Ly93d3cudzMub3JnLzIwMDAvc3ZnIiBoZWlnaHQ9IjIwMCIgd2lkdGg9IjIwMCIgdmVyc2lvbj0iMS4xIiB2aWV3Qm94PSIwIDAgMTAyNCAxMDI0IiBjbGFzcz0iaWNvbiI+PHBhdGggZmlsbD0iIzREQkJGNyIgZD0iTTgxMi42IDYxMS4zYy0yNC43IDAtNDcuNiA2LjktNjcuNCAxOC43LTY2LjUtNzQuNy02Ni4yLTE4Ny43IDAuOC0yNjIuMSAxOS41IDExLjUgNDIuMiAxOC4yIDY2LjUgMTguMiA3Mi41IDAgMTMxLjQtNTguOCAxMzEuNC0xMzEuNCAwLTcyLjUtNTguOC0xMzEuNC0xMzEuNC0xMzEuNC03Mi41IDAtMTMxLjQgNTguOC0xMzEuNCAxMzEuNCAwIDI1LjkgNy42IDQ5LjkgMjAuNSA3MC4yLTc1LjUgNjcuMy0xOTAuMSA2Ni40LTI2NC41LTIuNyAxMS45LTE5LjggMTguOC00Mi44IDE4LjgtNjcuNSAwLTcyLjUtNTguOC0xMzEuNC0xMzEuNC0xMzEuNC03Mi41IDAtMTMxLjQgNTguOC0xMzEuNCAxMzEuNCAwIDcyLjUgNTguOCAxMzEuNCAxMzEuNCAxMzEuNCAyNS42IDAgNDkuMy03LjQgNjkuNS0yMCA2OS4yIDc1IDY5LjUgMTkwLjQgMC44IDI2NS44LTIwLjMtMTIuOS00NC40LTIwLjUtNzAuMy0yMC41LTcyLjUgMC0xMzEuNCA1OC44LTEzMS40IDEzMS40IDAgNzIuNSA1OC44IDEzMS40IDEzMS40IDEzMS40IDcyLjUgMCAxMzEuNC01OC44IDEzMS40LTEzMS40IDAtMjQuNC02LjctNDcuMS0xOC4zLTY2LjYgNzQuMy02OC40IDE4OC4xLTY5LjMgMjYzLjQtMi43LTEyLjYgMjAuMS0xOS45IDQzLjgtMTkuOSA2OS4zIDAgNzIuNSA1OC44IDEzMS40IDEzMS40IDEzMS40IDcyLjUgMCAxMzEuNC01OC44IDEzMS40LTEzMS40IDAuMS03Mi43LTU4LjctMTMxLjUtMTMxLjMtMTMxLjV6Ii8+PHBhdGggZmlsbD0iIiBkPSJNNzYzLjIgMTg5LjJsLTkwLjUgOTAuNWMtNzYuOSA3Ni45LTIwMS42IDc2LjktMjc4LjUgMGwtOTAuNS05MC41Yy0xMS44LTExLjgtMzEtMTEuOC00Mi44IDAtMTEuOCAxMS44LTExLjggMzEgMCA0Mi44bDkwLjUgOTAuNWM3Ni45IDc2LjkgNzYuOSAyMDEuNiAwIDI3OC41bC05MC41IDkwLjVjLTExLjggMTEuOC0xMS44IDMxIDAgNDIuOCAxMS44IDExLjggMzEgMTEuOCA0Mi44IDBsOTAuNS05MC41Yzc2LjktNzYuOSAyMDEuNi03Ni45IDI3OC41IDBsOTAuNSA5MC41YzExLjggMTEuOCAzMSAxMS44IDQyLjggMCAxMS44LTExLjggMTEuOC0zMSAwLTQyLjhMNzE1LjUgNjAxYy03Ni45LTc2LjktNzYuOS0yMDEuNiAwLTI3OC41TDgwNiAyMzJjMTEuOC0xMS44IDExLjgtMzEgMC00Mi44LTExLjgtMTEuOC0zMC45LTExLjgtNDIuOCAweiIvPjxwYXRoIGZpbGw9IiM0REJCRjciIGQ9Ik01MzMuNSA0NjEuOG0tNzUuMSAwYTc1LjEgNzUuMSAwIDEgMCAxNTAuMiAwIDc1LjEgNzUuMSAwIDEgMC0xNTAuMiAwWiIvPjxwYXRoIGZpbGw9IiIgZD0iTTUzMy41IDQ2MS44bS0zNy41IDBhMzcuNSAzNy41IDAgMSAwIDc1IDAgMzcuNSAzNy41IDAgMSAwLTc1IDBaIi8+PHBhdGggZmlsbD0iIiBkPSJNMzI3LjcgMzEyLjJjLTEyLjQgNS4zLTI2LjEgOC4yLTQwLjQgOC4yLTU3IDAtMTAzLjItNDYuMi0xMDMuMi0xMDMuMlMyMzAuMyAxMTQgMjg3LjMgMTE0czEwMy4yIDQ2LjIgMTAzLjIgMTAzLjJjMCAxMy40LTIuNiAyNi4yLTcuMyAzNy45bDIxLjIgMjEuMmM5LTE3LjggMTQuMi0zNy45IDE0LjItNTkuMiAwLTcyLjUtNTguOC0xMzEuNC0xMzEuNC0xMzEuNHMtMTMxLjQgNTguOC0xMzEuNCAxMzEuNGMwIDcyLjUgNTguOCAxMzEuNCAxMzEuNCAxMzEuNCAyMi4yIDAgNDMuMS01LjYgNjEuNS0xNS4zbC0yMS0yMXpNNzM0LjcgMzEyLjJjMTIuNCA1LjMgMjYuMSA4LjIgNDAuNCA4LjIgNTcgMCAxMDMuMi00Ni4yIDEwMy4yLTEwMy4yUzgzMi4xIDExNCA3NzUuMSAxMTRzLTEwMy4yIDQ2LjItMTAzLjIgMTAzLjJjMCAxMy40IDIuNiAyNi4yIDcuMyAzNy45TDY1OCAyNzYuNGMtOS0xNy44LTE0LjItMzcuOS0xNC4yLTU5LjIgMC03Mi41IDU4LjgtMTMxLjQgMTMxLjQtMTMxLjRzMTMxLjQgNTguOCAxMzEuNCAxMzEuNGMwIDcyLjUtNTguOCAxMzEuNC0xMzEuNCAxMzEuNC0yMi4yIDAtNDMuMS01LjYtNjEuNS0xNS4zbDIxLTIxLjF6TTMyNy43IDYxMC4xYy0xMi40LTUuMy0yNi4xLTguMi00MC40LTguMi01NyAwLTEwMy4yIDQ2LjItMTAzLjIgMTAzLjJzNDYuMiAxMDMuMiAxMDMuMiAxMDMuMiAxMDMuMi00Ni4yIDEwMy4yLTEwMy4yYzAtMTMuNC0yLjYtMjYuMi03LjMtMzcuOWwyMS4yLTIxLjJjOSAxNy44IDE0LjIgMzcuOSAxNC4yIDU5LjIgMCA3Mi41LTU4LjggMTMxLjQtMTMxLjQgMTMxLjRzLTEzMS40LTU4LjgtMTMxLjQtMTMxLjRjMC03Mi41IDU4LjgtMTMxLjQgMTMxLjQtMTMxLjQgMjIuMiAwIDQzLjEgNS42IDYxLjUgMTUuM2wtMjEgMjF6TTczNC43IDYxMC4xYzEyLjQtNS4zIDI2LjEtOC4yIDQwLjQtOC4yIDU3IDAgMTAzLjIgNDYuMiAxMDMuMiAxMDMuMnMtNDYuMiAxMDMuMi0xMDMuMiAxMDMuMi0xMDMuMi00Ni4yLTEwMy4yLTEwMy4yYzAtMTMuNCAyLjYtMjYuMiA3LjMtMzcuOUw2NTggNjQ1LjljLTkgMTcuOC0xNC4yIDM3LjktMTQuMiA1OS4yIDAgNzIuNSA1OC44IDEzMS40IDEzMS40IDEzMS40czEzMS40LTU4LjggMTMxLjQtMTMxLjRjMC03Mi41LTU4LjgtMTMxLjQtMTMxLjQtMTMxLjQtMjIuMiAwLTQzLjEgNS42LTYxLjUgMTUuM2wyMSAyMS4xeiIvPjwvc3ZnPg==" vertex="1" parent="1">
          <mxGeometry x="160" y="490" width="80" height="80" as="geometry" />
        </mxCell>
        <mxCell id="nGL3_lGxGscLZ1-xO2Rq-32" value="" style="shape=image;verticalLabelPosition=bottom;verticalAlign=top;imageAspect=0;aspect=fixed;image=data:image/svg+xml,PHN2ZyB4bWxuczp4bGluaz0iaHR0cDovL3d3dy53My5vcmcvMTk5OS94bGluayIgeG1sbnM9Imh0dHA6Ly93d3cudzMub3JnLzIwMDAvc3ZnIiBoZWlnaHQ9IjIwMCIgd2lkdGg9IjIwMCIgdmVyc2lvbj0iMS4xIiB2aWV3Qm94PSIwIDAgMTAyNCAxMDI0IiBjbGFzcz0iaWNvbiI+PHBhdGggZmlsbD0iIzREQkJGNyIgZD0iTTgxMi42IDYxMS4zYy0yNC43IDAtNDcuNiA2LjktNjcuNCAxOC43LTY2LjUtNzQuNy02Ni4yLTE4Ny43IDAuOC0yNjIuMSAxOS41IDExLjUgNDIuMiAxOC4yIDY2LjUgMTguMiA3Mi41IDAgMTMxLjQtNTguOCAxMzEuNC0xMzEuNCAwLTcyLjUtNTguOC0xMzEuNC0xMzEuNC0xMzEuNC03Mi41IDAtMTMxLjQgNTguOC0xMzEuNCAxMzEuNCAwIDI1LjkgNy42IDQ5LjkgMjAuNSA3MC4yLTc1LjUgNjcuMy0xOTAuMSA2Ni40LTI2NC41LTIuNyAxMS45LTE5LjggMTguOC00Mi44IDE4LjgtNjcuNSAwLTcyLjUtNTguOC0xMzEuNC0xMzEuNC0xMzEuNC03Mi41IDAtMTMxLjQgNTguOC0xMzEuNCAxMzEuNCAwIDcyLjUgNTguOCAxMzEuNCAxMzEuNCAxMzEuNCAyNS42IDAgNDkuMy03LjQgNjkuNS0yMCA2OS4yIDc1IDY5LjUgMTkwLjQgMC44IDI2NS44LTIwLjMtMTIuOS00NC40LTIwLjUtNzAuMy0yMC41LTcyLjUgMC0xMzEuNCA1OC44LTEzMS40IDEzMS40IDAgNzIuNSA1OC44IDEzMS40IDEzMS40IDEzMS40IDcyLjUgMCAxMzEuNC01OC44IDEzMS40LTEzMS40IDAtMjQuNC02LjctNDcuMS0xOC4zLTY2LjYgNzQuMy02OC40IDE4OC4xLTY5LjMgMjYzLjQtMi43LTEyLjYgMjAuMS0xOS45IDQzLjgtMTkuOSA2OS4zIDAgNzIuNSA1OC44IDEzMS40IDEzMS40IDEzMS40IDcyLjUgMCAxMzEuNC01OC44IDEzMS40LTEzMS40IDAuMS03Mi43LTU4LjctMTMxLjUtMTMxLjMtMTMxLjV6Ii8+PHBhdGggZmlsbD0iIiBkPSJNNzYzLjIgMTg5LjJsLTkwLjUgOTAuNWMtNzYuOSA3Ni45LTIwMS42IDc2LjktMjc4LjUgMGwtOTAuNS05MC41Yy0xMS44LTExLjgtMzEtMTEuOC00Mi44IDAtMTEuOCAxMS44LTExLjggMzEgMCA0Mi44bDkwLjUgOTAuNWM3Ni45IDc2LjkgNzYuOSAyMDEuNiAwIDI3OC41bC05MC41IDkwLjVjLTExLjggMTEuOC0xMS44IDMxIDAgNDIuOCAxMS44IDExLjggMzEgMTEuOCA0Mi44IDBsOTAuNS05MC41Yzc2LjktNzYuOSAyMDEuNi03Ni45IDI3OC41IDBsOTAuNSA5MC41YzExLjggMTEuOCAzMSAxMS44IDQyLjggMCAxMS44LTExLjggMTEuOC0zMSAwLTQyLjhMNzE1LjUgNjAxYy03Ni45LTc2LjktNzYuOS0yMDEuNiAwLTI3OC41TDgwNiAyMzJjMTEuOC0xMS44IDExLjgtMzEgMC00Mi44LTExLjgtMTEuOC0zMC45LTExLjgtNDIuOCAweiIvPjxwYXRoIGZpbGw9IiM0REJCRjciIGQ9Ik01MzMuNSA0NjEuOG0tNzUuMSAwYTc1LjEgNzUuMSAwIDEgMCAxNTAuMiAwIDc1LjEgNzUuMSAwIDEgMC0xNTAuMiAwWiIvPjxwYXRoIGZpbGw9IiIgZD0iTTUzMy41IDQ2MS44bS0zNy41IDBhMzcuNSAzNy41IDAgMSAwIDc1IDAgMzcuNSAzNy41IDAgMSAwLTc1IDBaIi8+PHBhdGggZmlsbD0iIiBkPSJNMzI3LjcgMzEyLjJjLTEyLjQgNS4zLTI2LjEgOC4yLTQwLjQgOC4yLTU3IDAtMTAzLjItNDYuMi0xMDMuMi0xMDMuMlMyMzAuMyAxMTQgMjg3LjMgMTE0czEwMy4yIDQ2LjIgMTAzLjIgMTAzLjJjMCAxMy40LTIuNiAyNi4yLTcuMyAzNy45bDIxLjIgMjEuMmM5LTE3LjggMTQuMi0zNy45IDE0LjItNTkuMiAwLTcyLjUtNTguOC0xMzEuNC0xMzEuNC0xMzEuNHMtMTMxLjQgNTguOC0xMzEuNCAxMzEuNGMwIDcyLjUgNTguOCAxMzEuNCAxMzEuNCAxMzEuNCAyMi4yIDAgNDMuMS01LjYgNjEuNS0xNS4zbC0yMS0yMXpNNzM0LjcgMzEyLjJjMTIuNCA1LjMgMjYuMSA4LjIgNDAuNCA4LjIgNTcgMCAxMDMuMi00Ni4yIDEwMy4yLTEwMy4yUzgzMi4xIDExNCA3NzUuMSAxMTRzLTEwMy4yIDQ2LjItMTAzLjIgMTAzLjJjMCAxMy40IDIuNiAyNi4yIDcuMyAzNy45TDY1OCAyNzYuNGMtOS0xNy44LTE0LjItMzcuOS0xNC4yLTU5LjIgMC03Mi41IDU4LjgtMTMxLjQgMTMxLjQtMTMxLjRzMTMxLjQgNTguOCAxMzEuNCAxMzEuNGMwIDcyLjUtNTguOCAxMzEuNC0xMzEuNCAxMzEuNC0yMi4yIDAtNDMuMS01LjYtNjEuNS0xNS4zbDIxLTIxLjF6TTMyNy43IDYxMC4xYy0xMi40LTUuMy0yNi4xLTguMi00MC40LTguMi01NyAwLTEwMy4yIDQ2LjItMTAzLjIgMTAzLjJzNDYuMiAxMDMuMiAxMDMuMiAxMDMuMiAxMDMuMi00Ni4yIDEwMy4yLTEwMy4yYzAtMTMuNC0yLjYtMjYuMi03LjMtMzcuOWwyMS4yLTIxLjJjOSAxNy44IDE0LjIgMzcuOSAxNC4yIDU5LjIgMCA3Mi41LTU4LjggMTMxLjQtMTMxLjQgMTMxLjRzLTEzMS40LTU4LjgtMTMxLjQtMTMxLjRjMC03Mi41IDU4LjgtMTMxLjQgMTMxLjQtMTMxLjQgMjIuMiAwIDQzLjEgNS42IDYxLjUgMTUuM2wtMjEgMjF6TTczNC43IDYxMC4xYzEyLjQtNS4zIDI2LjEtOC4yIDQwLjQtOC4yIDU3IDAgMTAzLjIgNDYuMiAxMDMuMiAxMDMuMnMtNDYuMiAxMDMuMi0xMDMuMiAxMDMuMi0xMDMuMi00Ni4yLTEwMy4yLTEwMy4yYzAtMTMuNCAyLjYtMjYuMiA3LjMtMzcuOUw2NTggNjQ1LjljLTkgMTcuOC0xNC4yIDM3LjktMTQuMiA1OS4yIDAgNzIuNSA1OC44IDEzMS40IDEzMS40IDEzMS40czEzMS40LTU4LjggMTMxLjQtMTMxLjRjMC03Mi41LTU4LjgtMTMxLjQtMTMxLjQtMTMxLjQtMjIuMiAwLTQzLjEgNS42LTYxLjUgMTUuM2wyMSAyMS4xeiIvPjwvc3ZnPg==" vertex="1" parent="1">
          <mxGeometry x="480" y="490" width="80" height="80" as="geometry" />
        </mxCell>
        <mxCell id="nGL3_lGxGscLZ1-xO2Rq-34" value="" style="endArrow=classic;startArrow=classic;html=1;rounded=0;exitX=1;exitY=0.5;exitDx=0;exitDy=0;dashed=1;entryX=0;entryY=0.5;entryDx=0;entryDy=0;" edge="1" parent="1" source="nGL3_lGxGscLZ1-xO2Rq-31" target="nGL3_lGxGscLZ1-xO2Rq-32">
          <mxGeometry width="50" height="50" relative="1" as="geometry">
            <mxPoint x="230" y="544.5" as="sourcePoint" />
            <mxPoint x="470" y="545" as="targetPoint" />
          </mxGeometry>
        </mxCell>
        <mxCell id="nGL3_lGxGscLZ1-xO2Rq-35" value="" style="shape=image;verticalLabelPosition=bottom;verticalAlign=top;imageAspect=0;aspect=fixed;image=data:image/png,iVBORw0KGgoAAAANSUhEUgAAAQUAAADICAYAAADhl/RPAAAAAXNSR0IArs4c6QAAGC5JREFUeF7tnXmUHNV1xr9b3VU9IEBskqbbAQsk1N3CgC0hg9llEYEdkFkSGQyE2BwM+EDABmPjBAtj55gdAngJMZAAMhFYRojFhAN2IiDH8UlIAra6WxKbDV0zkhAHhNFM1XTdUDMySHhGU91dy3tVt/+d9+777u+++U5XddW7BPkIASEgBLYgQEJDCAgBIbAlATEF2Q9CQAhsRUBMQTaEEBACYgqyB4SAEBibgHxTkN0hBISAfFOQPSAEhIB8U5A9IASEQEACcvkQEJQMEwJZISCmkJVKS55CICABMYWAoGSYEMgKATGFrFRa8hQCAQmIKQQEJcOEgIoEpvC0yTnHuqRZqF0alj4xhbBIShwhEDOBXqfyVwboBgC7MHCTbdW+HIYEMYUwKEoMIRAjgd14xocKrnE3QHO3WtbwPtPMN5Z3K0VMoVuCMl8IxEWAQSW3fAHD+DsCdvjgsgzeCJP2s6n2SjeSxBS6oSdzhUBMBEpcLsOlOwA6ZFtLMvhZ26rP7kaWmEI39GSuEIiaAE8vFJ38IiK6BIAZbDn+XtOqnx9s7B+PElPolJzMEwIRE+h1y3PJozuIaGrbS3Vxf0FMoW3aMkEIREugl6dPMlzzVgALO12pm/sLYgqdUpd5QiACAkWnfC5A1xBox27DM/h52xz4OOjlgXZiiSm0Q0vGCoGICOzK0/+k4ObvJtBRYS7B4Ntsq35OOzHFFNqhJWOFQAQEik7lbADXh/HtYDR5HnsL+wqN+4NKF1MISkrGCYGQCezO1aLl4i4AR4cceqtwDLzTMt3919KaF4KsI6YQhJKMEQIhEyg61TMIfAtAE0MOPWo4ZqzMWRsPfJVe3TTeemIK4xGSvwuBEAmM+YhyiGuMHYrvbFr1L4y3lJjCeITk70IgDAIM6nWr5xH4qqjuHQSRycBf2lbt7m2NFVMIQlLGCIEuCEzh8l451/gxgIO7CBPSVB5gszXLptW1sQKKKYSEWsIIgdEI9LrlrxpsXKMOHX7TM+i0vnztETEFdaoiSjJAYDJPn5Zz80sI1NXLSWGiYubHhyzjzHW0sk8uH8IkK7GEwDgEik71IgJuVAjUG8zeBXahsTiIJrl8CEJJxgiBAASKXP0wubwYoEMDDI9lCAMrWubAwrX0Un/QBcUUgpKScUJgGwR6neqXDPD1APWoAsoj/mqfWb+uXT1iCu0Sk/FCYAsCk3mvKTmncBcRzVcGDPOqIfIWrrVW/V8nmsQUOqEmc4QAgKJbOYYY/uXCbqoAYeZ/Jeutk5rUfKdTTWIKnZKTeZklUOLS9uzudCOBvqgSBI+9q/usxmUgcDe6xBS6oSdzM0eg6FRmE9O/gDBdqeSZP9cs1O8NQ5OYQhgUJUYmCPS61csNxpVKJctsM+F426r/d1i6xBTCIilxUkvAf0zZcMl/EGmOYkn+j2e6x/TRmnVh6hJTCJOmxEodgZHj0YzrCJigVHKM+5uWewZozWDYusQUwiYq8VJBwD8AxXRwOxE+pVpCTLjcNmvfiUqXmEJUZCWutgT8B5EIuHq0LkzJJsWbYPApYbSG21YeYgrJVllWV4jAyL0D458JOFwhWcNSGLyW2fhkX2Hlb6LWJqYQNWGJrwWBXrdyicF0rYpi/aPaXZOPXU+NZhz6xBTioCxrKEtg+DFlt+c+Ao5QVOQThrlxQZCzFcPSL6YQFkmJox2B4lD1RPJwO4BdVBTP4Jttq35h3NrEFOImLuslTsB/TBnuxFsAjHuIaRJiGcwAXWxbtUTOZBBTSKLqsmZiBIpO+UBiw39MeVpiIsZZuMU4pb9QW5KUPjGFpMjLuvESYORKTuVyJvobAvLxLh5steGmsETH2WZtRbAZ0YwSU4iGq0RViMAknjY975o/VvAx5fcoMaOP4c7rK6xZmTQ6MYWkKyDrR0qg5FQuAOjmSBfpMjgDvxk03WM30JpXuwwVynQxhVAwShDVCEzhaZMNx/RPRDpGNW1b6mHg6QFz8Lg36MU3VdEppqBKJURHaARUPBFptOSY8aBt0ULQSie05EMIJKYQAkQJoQgBnmmVXPZ/xvuSIoq2JeMHTaumpE4xBQ12j0gcn8CUwepHDPD9RFQZf3TCI4gva5r1qxJWMebyYgqqVkZ0BSZQcsp/DRh/H3hCggM94Mw+q3ZXghLGXVpMYVxEMkBVAlN4ygTD2fUeIpygqsb3dfGgZ9DJ2+rhqEoOYgqqVEJ0tEVg8mB5/xzoQSKa2tbEBAb7DyW1CMeuNev/kcDybS8pptA2MpmQNIHNvRqvBmAlrWX89fn1FtNR/YXar8cfq8YIMQU16iAqAhDYhfee2OMU7iTCiQGGJz+E2XYsHLWe6quSFxNcgZhCcFYyMkEC/uVCHsbDIOyRoIzASzPjt2Q5hzXphd8FnqTIQDEFRQohMsYmsPnXBf9UJA0uFwBmfsm16ND1VLN1rKuYgo5Vy4jmXXn6TgXH/CdtLhf8sxSZ657lHtlPL6zVtUxiCrpWLuW6i051FpiX6vDrwvul4Oc2mc4RKr3H0Mk2EVPohJrMiZRAr1u52GC6LtJFQg7OwK8GzMH5uhuCj0VMIeTNIeE6J7AzT915O6dnCRHN7zxK/DMZeIrMN4/tpv17/KrHXlFMQaVqZFhLyZ1xGHu5+4nQqxUG5keahfpxWmkeR6yYQpqqqWku/uUCMV2l6jFpY2Id7udYOxWElqboR5UtppCmamqWyySeuYPpeItBtEAz6b7cO5pW7SwNdY8rWUxhXEQyIAoCJZ5RYcd4lIj2iiJ+lDEZuMm2al+Oco0kY4spJEk/o2sXncrZBNwMUI92CNj7drPQ+KZ2utsQLKbQBiwZ2h0B/92F7RzrbhAd312kZGZ7xJf0mfXrk1k9vlXFFOJjnemViu6Mw+Hl7tPu14XNVcuKIfjpiimM8q9aHKx+p2UN3bGWVr+Y6f/kkJIvDVauBdElIYVLIAxf0LTqtyawcCJLiilsgb2Xp08iN38/gY4Es81Wa55Nq2uJVCYFi5Z47z3ZtZYS6EBd02F459lW44e66u9Et5jCZmr+s/bE/DCIiu+D9A/IwNz+Qv35TuBmec4Ud8a8HBtLAZqoI4fNTV7PtK3a3Trq70azmAKAolP5IoH8LsR/9Goug9/y0Jrfb63+z25AZ2Yug0pOZRETLieQoWPeviEw+Kw+q3Gnjvq71ZxtU2CYRbd6OwFnbBskb2oRH9dvNn7eLfA0z/dfde5xzaUAjtY5Tw/eF7JqCJm+0bgbz/iQ5RoPEmh2wA3sMnkLbLPxWMDxmRo20ncBjxBhT50Tz+I9hA/WK5PfFPyXb8DGMoB2a2cDMzDEhndqX77xk3bmpX1sabDiP/9/J0AFnXMVQxipXuZMoehWvgLGNQTKdbKBs369uRUznmkVXe9mAp3TCUuV5jC8i2yroUVDmai5ZccUeGpP0elZTEQnhQE165tody6XLNd4GMDHwuCZZIys1zKTlw+TeZ+9c25+OQH7hrr5mL/VLNSvCDWmBsE6vfxSMrWM1nBbtUj9N4WSW5nPDP+BpJ0i2pTKdg+OIt+iU/XfDrxGu7MPRoXBtzat+gVRcNI5ZnpNwf+9fKjyzXd/cF5EoKjzTO279e9t7pE2735j1M/qvOH/oJ3B/2hb9S+mIZewc4j6nyVsvYHi7c7lHU2H/LbkxwSaEMaglJ7C46PxH1eGay0H6IAwUCkQY0nTqp2igA4lJaTOFHoHZ+5rgB8EYVrsxFN4Xl/RrRxDTPcC2CV2nhEsyIwH7EItlJvNEchTImSqTKE4VD2RPF4M0HZJ0fVP9rXNTfNBLw8kpSGUdRlGySlfwUR/G8PlVyiSAwR5omnWPg2CG2BsZoekwxQYuZJTuUqh13N/6Zje/PXU2KjjzprIe+6yvbv9A8Nvi6bn88um6R4FWjOYnpSiyUR7U9iJZ+46weVlBBweDaJOo/Jzb5vG3Ldo5YZOIyQxr9eZMcdg4wEQfSiJ9aNZk59rmW8c0k/9v48mfrqiam0KRacymxgPqrqB/b6CrsXz1lOjqcO2KTrlCwnGTTpoDaqRGbXfW3SYbuYcNL8oxmlrCsXB8ulExu2qdyL2W5KzxUf2Uf3lKAoYSkz//oFb+RFAnw8lnipBGL9zLfr4OlrZp4okHXToZwqMfNGt3kLAuToA9jUyeO2Q6R66jl5Yo5rm4VZtbs+ylN0/8Ns/256FQ5Q2Y9U2w2Y9WpnCJJ7Za7r8AICDFeW5DVnqneI0madPyzn5J/Tq7Byo8htc0zlIRRMOpD7hQdqYwhRnn4MM5B4i0KSEmXW8vEqnOBXd6hFg9nlG9fh3x5y6mcjA2x7zIXKEXucUtTAF/3l7Am7oPE11ZjLwjketBf3mqieTUlVyKue/e5aEf/xc6j5MrSNsc9VTqUssxoSUN4WiU7mHQKfFyCSepQzvhGa+8WA8i72/StGp3Eags+NeN471WgYf35+v+69zy6cLAsqaQgqft9+qTHGf4uQ/z7GD6z0E0CFd7BdlpzJ7p9uFxmJlBWokTElT6HXLcw02fgpgZ41Yti01rlOcNr8P8jMQ9mhbpAYTmPgbtln/rgZStZConCkU3co3wPi2rseDd1L1KE/+KQ2VF7Bn3EvA9p1oU38Of69p1c9XX6c+CpUxhRKXtoez0xIQHacPvhCVMl/ZLNQXhRgRJbeyKKbzJMKUHTyW/7p6obYw+AQZGYSAEqawO1dmWA6Wg6gcRHSKx4RzihNP7Sk5Pfen2WAZeNo2a0eB0ErxfkgktcRNoXeo+mfkYQkBExIhoN6iXZ3iNNK/sfBo6OdRKsSJwb8eMo1PrKOVbyskKzVSkjMFhlF0Kt8hostSQzOsRDo8xWnkQNXcQ2m+Qeu/S+JZzpx+emFtWLglztYEEjEF/339Ce6E+3RvLxbpZmJ+qFmoLwi6Rq9TPs+A8f2g4zUdJ48vx1C42E1h8mB5/xyM5UT4cAz5ab1E0FOcSoPVq0G4VOtkxxfvtDB0hDT6HR9UtyNiNYXewfJCg+gu3duLdQu9zfljn+LEoKJbuTuVT3xuAcl/noMM76RmftWyNtnJ8A4IxGMKjHzJrdwIkPye3EGRgFFOcfJbtjm8jAif6iikRpM88i7tMxvXaiRZa6mRm0KJZ+wOd/jml4avOytUW8Zqx8KR66lmj7R8zz8G0CcUUhiJFAbfZlt17XtVRgInoqDRm4Jb+TqY5BHUEArIjFdaBp+aY/wDgfYLIaTaIdq82ap2Mvqoi9wUfBSlwfKVIONyfbCI0qQJMPh52xz4uPZH5ScNsoP1YzEFX1caDwXtgLdMCUKA+bWW5c6SZxGCwAp/TGymIMYQfvHSGJHBG5mHDu4rrFmZxvx0yClWU/CB9DrlzxPo9hR1HdKhzlpoZHAL5M2Vk5OSLVfspjByj6HyOSb4Jyolsn6yyGX1sQh4wJl9Vs3vbC2fBAkk9k/ZO1T+c/JoSZbOTUiwzsov7bF3dV+h8XXlhWZAYGKmMPyNYeQAkKUE5DPAWlIcg4B0glZrayRqCsM3H93yscTGcgCmWmhETRwEGPysbdYPlk7QcdAOtkbipuDLnOKWP5ljejjJFvLBcMmoMAn4D2MZFs9+jeqvhxlXYnVHQAlTGL6UcMuHMhuPEbBDdynJbD0I8JuuSXPWUW21Hnqzo1IZUxi+lHCqswD+Rdq6FmVnOwXO1GVqzZOfHgPzinWgUqYwfCkxWNkvR7QizacHxVphBRfz2PtsX6HhH7IjHwUJKGcKw98YeJ8qubmn3m1ttpuCzERSNwSYv9Us1K/oJoTMjZaAkqbgpzyJp03Pu+YzBJocLQKJHiOBJU2rdkqM68lSHRBQ1hT8XHq5MtVw8AyISh3kJlMUIsDACtuszQNhSCFZImUUAkqbgq+3xNP2YMd6mgh7SgU1JcBY41jerPXU2KhpBpmSrbwp+NXYnatF0+FniGivTFUnBckyeD2ZzuwmvfjbFKSTiRS0MIWRS4npk8jJryCiSiYqk4okeYDBh9tW479SkU5GktDGFPx67MJ7T9zOtVYAtH9G6qN1mmzwyXa+7ncPl49GBLQyhZFLifKOpkv+A06zNeKcPansfbtZaHwze4nrn7F2pjBy87G0PdyJT8oJ0YpuQOaHm4X68YqqE1njENDSFIZz4qk9RXe7xwk4XKqsEgF+rmkOHCQHrqpUk/a06GsKw8Yw0yq5/CiAee2lLaOjIMCMvpY18NG19FJ/FPElZjwE9DaFYWNA/t0XqfzelKnvlBTPluh0FR5sMeb0F+rPdxpB5qlBQH9TGDGGXNGpLiXCZ9TAmj0V8ktDemqeDlMYMQYqOdUlIPxFesqjSSbMVzYL9UWaqBWZqb3ROEZiRaf6IwLOksrHQ4CZf2oX6ifHs5qsEgeB9HxT2IJWyal+H8B5cQDM8hrMWGlbm2bLLw3p2gWpNAW/REWneiMBF6WrXOpkw+B1g+bQrA205lV1VImSMAik1hR8OKXByhUgkmvdMHbK1jFchneIvNMQPlgVIqbaFEa+MZQvJBg3qQA7LRqYvdPtQmNxWvKRPLYmkHpT2GwM5xKMH0jxuyfA4Jttq35h95EkgqoEMmEKPnxpbBvGFuRfNM360SB4YUSTGGoSyIwpbL7HII1tO9yHzPySa/EBcnpShwA1mpYpUxj+xiCNbdvengy8PWRiljRuaRudlhMyZwrD3xiGZpwAL/eAlhVLQLRntD7dl1/1swSWliUTIJBJU/A5b+5f+ShAhQS4a7MkE3/DNuvf1UawCO2aQGZNYfgbgzvjMLDxuDS2HX0fMWOZXaid2PUukwBaEci0KQx/Y3D2OchA/kkCJmhVuajFMjea1sBH5RHmqEGrFz/zpuCXRBrbfnBj8pstkz/WT42X1NuyoihqAmIKmwlLY9sREAz2POI/7TcbP49680l8NQmIKWxRF2lsC4DwtaZZu0bN7Sqq4iAgpvAByllubCs3FuP4l1N/DTGFUWrkN7Ylh/49S/0rGfxr2xyYIzcW1f+njVqhmMIYhDPWv3LDgOkeIGcjRP3vpkd8MYVt1GkKT5ucc8wVICrrUc7OVLaodXS/ucpvriMfIQAxhXE2wU48c9cJDj9FhJmp3C/ElzXN+lWpzE2S6oiAmEIAbKltbMv8SLNQPy4AAhmSIQJiCgGLnbrGtowXWtaGA/qp//cBEciwjBAQU2ij0GlpbMvAO2R6s5rUaLSRvgzNCAExhXYLnYLGtmzgJDtfk1fH2619RsaLKXRSaK0b2/KtTat+QSdpy5xsEBBT6LTOI41tf6JT/0oGP2ub9TlyxmKnRc/GPDGFbuqsV//KDY6Jj6ynmt1NyjI3/QTEFEKocdGp3EOg00IIFUkI/81HkHeUba56KpIFJGiqCIgphFTOolP5IYHOCSlcqGE88i7tMxvXhhpUgqWWgJhCiKVVsbEtMz9uF+rHhJimhEo5ATGFkAusVGNb5tc2Wc6+b9CLb4acpoRLMQExhQiKW3Iri8B0RQShA4dkYAjAQbZVezbwJBkoBIbP2ZFPJASSbmzLxBfbZv2GSJKToKkmIKYQYXmLTjmRxrZyHyHComYgtJhCxEWOvbGt3EeIuKLpDy+mEEON4+pfKfcRYihmBpYQU4ipyKWh8gL2jKUE5KNakoGv2FbtxqjiS9xsEBBTiLHORbd8LLGxHIAZ9rJyHyFsotmNJ6YQc+0jaWwr9xFirmK6lxNTSKC+vW55rsHkd7zuCWN5D62D+qxVvwojlsQQAmIKCe2BsBrbynsNCRUwxcuKKSRY3BAa2z7ZtGpHJ5iCLJ1CAmIKCRe108a2DF5vmKi8RvXXE05Blk8ZATEFBQrqN7aFm/s3Ak0OIofB7BEfLZ2hg9CSMe0SEFNol1hE4/3+lYaDZ0BUGncJxjXNQu1r446TAUKgAwJiCh1Ai2pKiaftwY719DiNbf+3adYOBKEVlQ6Jm20CYgqK1X9bjW0ZvBEm7WdT7RXFZIucFBEQU1CwmL08fZLhmM+AsM9W8ozWic38qmUKShZJKSIgpqBoMUdpbHtH06qdpahckZUiAmIKChfzvca2TNsZ1sYDXqVXNyksV6SlhICYguKF9I2hB7mSTatriksVeSkhIKaQkkJKGkIgLAJiCmGRlDhCICUExBRSUkhJQwiERUBMISySEkcIpISAmEJKCilpCIGwCIgphEVS4giBlBAQU0hJISUNIRAWATGFsEhKHCGQEgJiCikppKQhBMIiIKYQFkmJIwRSQkBMISWFlDSEQFgExBTCIilxhEBKCPw/W1Y9MuO8p1oAAAAASUVORK5CYII=" vertex="1" parent="1">
          <mxGeometry x="203.89999999999998" y="600" width="26.1" height="20" as="geometry" />
        </mxCell>
        <mxCell id="nGL3_lGxGscLZ1-xO2Rq-36" value="" style="shape=image;verticalLabelPosition=bottom;verticalAlign=top;imageAspect=0;aspect=fixed;image=data:image/png,iVBORw0KGgoAAAANSUhEUgAAAQUAAADICAYAAADhl/RPAAAAAXNSR0IArs4c6QAAGC5JREFUeF7tnXmUHNV1xr9b3VU9IEBskqbbAQsk1N3CgC0hg9llEYEdkFkSGQyE2BwM+EDABmPjBAtj55gdAngJMZAAMhFYRojFhAN2IiDH8UlIAra6WxKbDV0zkhAHhNFM1XTdUDMySHhGU91dy3tVt/+d9+777u+++U5XddW7BPkIASEgBLYgQEJDCAgBIbAlATEF2Q9CQAhsRUBMQTaEEBACYgqyB4SAEBibgHxTkN0hBISAfFOQPSAEhIB8U5A9IASEQEACcvkQEJQMEwJZISCmkJVKS55CICABMYWAoGSYEMgKATGFrFRa8hQCAQmIKQQEJcOEgIoEpvC0yTnHuqRZqF0alj4xhbBIShwhEDOBXqfyVwboBgC7MHCTbdW+HIYEMYUwKEoMIRAjgd14xocKrnE3QHO3WtbwPtPMN5Z3K0VMoVuCMl8IxEWAQSW3fAHD+DsCdvjgsgzeCJP2s6n2SjeSxBS6oSdzhUBMBEpcLsOlOwA6ZFtLMvhZ26rP7kaWmEI39GSuEIiaAE8vFJ38IiK6BIAZbDn+XtOqnx9s7B+PElPolJzMEwIRE+h1y3PJozuIaGrbS3Vxf0FMoW3aMkEIREugl6dPMlzzVgALO12pm/sLYgqdUpd5QiACAkWnfC5A1xBox27DM/h52xz4OOjlgXZiiSm0Q0vGCoGICOzK0/+k4ObvJtBRYS7B4Ntsq35OOzHFFNqhJWOFQAQEik7lbADXh/HtYDR5HnsL+wqN+4NKF1MISkrGCYGQCezO1aLl4i4AR4cceqtwDLzTMt3919KaF4KsI6YQhJKMEQIhEyg61TMIfAtAE0MOPWo4ZqzMWRsPfJVe3TTeemIK4xGSvwuBEAmM+YhyiGuMHYrvbFr1L4y3lJjCeITk70IgDAIM6nWr5xH4qqjuHQSRycBf2lbt7m2NFVMIQlLGCIEuCEzh8l451/gxgIO7CBPSVB5gszXLptW1sQKKKYSEWsIIgdEI9LrlrxpsXKMOHX7TM+i0vnztETEFdaoiSjJAYDJPn5Zz80sI1NXLSWGiYubHhyzjzHW0sk8uH8IkK7GEwDgEik71IgJuVAjUG8zeBXahsTiIJrl8CEJJxgiBAASKXP0wubwYoEMDDI9lCAMrWubAwrX0Un/QBcUUgpKScUJgGwR6neqXDPD1APWoAsoj/mqfWb+uXT1iCu0Sk/FCYAsCk3mvKTmncBcRzVcGDPOqIfIWrrVW/V8nmsQUOqEmc4QAgKJbOYYY/uXCbqoAYeZ/Jeutk5rUfKdTTWIKnZKTeZklUOLS9uzudCOBvqgSBI+9q/usxmUgcDe6xBS6oSdzM0eg6FRmE9O/gDBdqeSZP9cs1O8NQ5OYQhgUJUYmCPS61csNxpVKJctsM+F426r/d1i6xBTCIilxUkvAf0zZcMl/EGmOYkn+j2e6x/TRmnVh6hJTCJOmxEodgZHj0YzrCJigVHKM+5uWewZozWDYusQUwiYq8VJBwD8AxXRwOxE+pVpCTLjcNmvfiUqXmEJUZCWutgT8B5EIuHq0LkzJJsWbYPApYbSG21YeYgrJVllWV4jAyL0D458JOFwhWcNSGLyW2fhkX2Hlb6LWJqYQNWGJrwWBXrdyicF0rYpi/aPaXZOPXU+NZhz6xBTioCxrKEtg+DFlt+c+Ao5QVOQThrlxQZCzFcPSL6YQFkmJox2B4lD1RPJwO4BdVBTP4Jttq35h3NrEFOImLuslTsB/TBnuxFsAjHuIaRJiGcwAXWxbtUTOZBBTSKLqsmZiBIpO+UBiw39MeVpiIsZZuMU4pb9QW5KUPjGFpMjLuvESYORKTuVyJvobAvLxLh5steGmsETH2WZtRbAZ0YwSU4iGq0RViMAknjY975o/VvAx5fcoMaOP4c7rK6xZmTQ6MYWkKyDrR0qg5FQuAOjmSBfpMjgDvxk03WM30JpXuwwVynQxhVAwShDVCEzhaZMNx/RPRDpGNW1b6mHg6QFz8Lg36MU3VdEppqBKJURHaARUPBFptOSY8aBt0ULQSie05EMIJKYQAkQJoQgBnmmVXPZ/xvuSIoq2JeMHTaumpE4xBQ12j0gcn8CUwepHDPD9RFQZf3TCI4gva5r1qxJWMebyYgqqVkZ0BSZQcsp/DRh/H3hCggM94Mw+q3ZXghLGXVpMYVxEMkBVAlN4ygTD2fUeIpygqsb3dfGgZ9DJ2+rhqEoOYgqqVEJ0tEVg8mB5/xzoQSKa2tbEBAb7DyW1CMeuNev/kcDybS8pptA2MpmQNIHNvRqvBmAlrWX89fn1FtNR/YXar8cfq8YIMQU16iAqAhDYhfee2OMU7iTCiQGGJz+E2XYsHLWe6quSFxNcgZhCcFYyMkEC/uVCHsbDIOyRoIzASzPjt2Q5hzXphd8FnqTIQDEFRQohMsYmsPnXBf9UJA0uFwBmfsm16ND1VLN1rKuYgo5Vy4jmXXn6TgXH/CdtLhf8sxSZ657lHtlPL6zVtUxiCrpWLuW6i051FpiX6vDrwvul4Oc2mc4RKr3H0Mk2EVPohJrMiZRAr1u52GC6LtJFQg7OwK8GzMH5uhuCj0VMIeTNIeE6J7AzT915O6dnCRHN7zxK/DMZeIrMN4/tpv17/KrHXlFMQaVqZFhLyZ1xGHu5+4nQqxUG5keahfpxWmkeR6yYQpqqqWku/uUCMV2l6jFpY2Id7udYOxWElqboR5UtppCmamqWyySeuYPpeItBtEAz6b7cO5pW7SwNdY8rWUxhXEQyIAoCJZ5RYcd4lIj2iiJ+lDEZuMm2al+Oco0kY4spJEk/o2sXncrZBNwMUI92CNj7drPQ+KZ2utsQLKbQBiwZ2h0B/92F7RzrbhAd312kZGZ7xJf0mfXrk1k9vlXFFOJjnemViu6Mw+Hl7tPu14XNVcuKIfjpiimM8q9aHKx+p2UN3bGWVr+Y6f/kkJIvDVauBdElIYVLIAxf0LTqtyawcCJLiilsgb2Xp08iN38/gY4Es81Wa55Nq2uJVCYFi5Z47z3ZtZYS6EBd02F459lW44e66u9Et5jCZmr+s/bE/DCIiu+D9A/IwNz+Qv35TuBmec4Ud8a8HBtLAZqoI4fNTV7PtK3a3Trq70azmAKAolP5IoH8LsR/9Goug9/y0Jrfb63+z25AZ2Yug0pOZRETLieQoWPeviEw+Kw+q3Gnjvq71ZxtU2CYRbd6OwFnbBskb2oRH9dvNn7eLfA0z/dfde5xzaUAjtY5Tw/eF7JqCJm+0bgbz/iQ5RoPEmh2wA3sMnkLbLPxWMDxmRo20ncBjxBhT50Tz+I9hA/WK5PfFPyXb8DGMoB2a2cDMzDEhndqX77xk3bmpX1sabDiP/9/J0AFnXMVQxipXuZMoehWvgLGNQTKdbKBs369uRUznmkVXe9mAp3TCUuV5jC8i2yroUVDmai5ZccUeGpP0elZTEQnhQE165tody6XLNd4GMDHwuCZZIys1zKTlw+TeZ+9c25+OQH7hrr5mL/VLNSvCDWmBsE6vfxSMrWM1nBbtUj9N4WSW5nPDP+BpJ0i2pTKdg+OIt+iU/XfDrxGu7MPRoXBtzat+gVRcNI5ZnpNwf+9fKjyzXd/cF5EoKjzTO279e9t7pE2735j1M/qvOH/oJ3B/2hb9S+mIZewc4j6nyVsvYHi7c7lHU2H/LbkxwSaEMaglJ7C46PxH1eGay0H6IAwUCkQY0nTqp2igA4lJaTOFHoHZ+5rgB8EYVrsxFN4Xl/RrRxDTPcC2CV2nhEsyIwH7EItlJvNEchTImSqTKE4VD2RPF4M0HZJ0fVP9rXNTfNBLw8kpSGUdRlGySlfwUR/G8PlVyiSAwR5omnWPg2CG2BsZoekwxQYuZJTuUqh13N/6Zje/PXU2KjjzprIe+6yvbv9A8Nvi6bn88um6R4FWjOYnpSiyUR7U9iJZ+46weVlBBweDaJOo/Jzb5vG3Ldo5YZOIyQxr9eZMcdg4wEQfSiJ9aNZk59rmW8c0k/9v48mfrqiam0KRacymxgPqrqB/b6CrsXz1lOjqcO2KTrlCwnGTTpoDaqRGbXfW3SYbuYcNL8oxmlrCsXB8ulExu2qdyL2W5KzxUf2Uf3lKAoYSkz//oFb+RFAnw8lnipBGL9zLfr4OlrZp4okHXToZwqMfNGt3kLAuToA9jUyeO2Q6R66jl5Yo5rm4VZtbs+ylN0/8Ns/256FQ5Q2Y9U2w2Y9WpnCJJ7Za7r8AICDFeW5DVnqneI0madPyzn5J/Tq7Byo8htc0zlIRRMOpD7hQdqYwhRnn4MM5B4i0KSEmXW8vEqnOBXd6hFg9nlG9fh3x5y6mcjA2x7zIXKEXucUtTAF/3l7Am7oPE11ZjLwjketBf3mqieTUlVyKue/e5aEf/xc6j5MrSNsc9VTqUssxoSUN4WiU7mHQKfFyCSepQzvhGa+8WA8i72/StGp3Eags+NeN471WgYf35+v+69zy6cLAsqaQgqft9+qTHGf4uQ/z7GD6z0E0CFd7BdlpzJ7p9uFxmJlBWokTElT6HXLcw02fgpgZ41Yti01rlOcNr8P8jMQ9mhbpAYTmPgbtln/rgZStZConCkU3co3wPi2rseDd1L1KE/+KQ2VF7Bn3EvA9p1oU38Of69p1c9XX6c+CpUxhRKXtoez0xIQHacPvhCVMl/ZLNQXhRgRJbeyKKbzJMKUHTyW/7p6obYw+AQZGYSAEqawO1dmWA6Wg6gcRHSKx4RzihNP7Sk5Pfen2WAZeNo2a0eB0ErxfkgktcRNoXeo+mfkYQkBExIhoN6iXZ3iNNK/sfBo6OdRKsSJwb8eMo1PrKOVbyskKzVSkjMFhlF0Kt8hostSQzOsRDo8xWnkQNXcQ2m+Qeu/S+JZzpx+emFtWLglztYEEjEF/339Ce6E+3RvLxbpZmJ+qFmoLwi6Rq9TPs+A8f2g4zUdJ48vx1C42E1h8mB5/xyM5UT4cAz5ab1E0FOcSoPVq0G4VOtkxxfvtDB0hDT6HR9UtyNiNYXewfJCg+gu3duLdQu9zfljn+LEoKJbuTuVT3xuAcl/noMM76RmftWyNtnJ8A4IxGMKjHzJrdwIkPye3EGRgFFOcfJbtjm8jAif6iikRpM88i7tMxvXaiRZa6mRm0KJZ+wOd/jml4avOytUW8Zqx8KR66lmj7R8zz8G0CcUUhiJFAbfZlt17XtVRgInoqDRm4Jb+TqY5BHUEArIjFdaBp+aY/wDgfYLIaTaIdq82ap2Mvqoi9wUfBSlwfKVIONyfbCI0qQJMPh52xz4uPZH5ScNsoP1YzEFX1caDwXtgLdMCUKA+bWW5c6SZxGCwAp/TGymIMYQfvHSGJHBG5mHDu4rrFmZxvx0yClWU/CB9DrlzxPo9hR1HdKhzlpoZHAL5M2Vk5OSLVfspjByj6HyOSb4Jyolsn6yyGX1sQh4wJl9Vs3vbC2fBAkk9k/ZO1T+c/JoSZbOTUiwzsov7bF3dV+h8XXlhWZAYGKmMPyNYeQAkKUE5DPAWlIcg4B0glZrayRqCsM3H93yscTGcgCmWmhETRwEGPysbdYPlk7QcdAOtkbipuDLnOKWP5ljejjJFvLBcMmoMAn4D2MZFs9+jeqvhxlXYnVHQAlTGL6UcMuHMhuPEbBDdynJbD0I8JuuSXPWUW21Hnqzo1IZUxi+lHCqswD+Rdq6FmVnOwXO1GVqzZOfHgPzinWgUqYwfCkxWNkvR7QizacHxVphBRfz2PtsX6HhH7IjHwUJKGcKw98YeJ8qubmn3m1ttpuCzERSNwSYv9Us1K/oJoTMjZaAkqbgpzyJp03Pu+YzBJocLQKJHiOBJU2rdkqM68lSHRBQ1hT8XHq5MtVw8AyISh3kJlMUIsDACtuszQNhSCFZImUUAkqbgq+3xNP2YMd6mgh7SgU1JcBY41jerPXU2KhpBpmSrbwp+NXYnatF0+FniGivTFUnBckyeD2ZzuwmvfjbFKSTiRS0MIWRS4npk8jJryCiSiYqk4okeYDBh9tW479SkU5GktDGFPx67MJ7T9zOtVYAtH9G6qN1mmzwyXa+7ncPl49GBLQyhZFLifKOpkv+A06zNeKcPansfbtZaHwze4nrn7F2pjBy87G0PdyJT8oJ0YpuQOaHm4X68YqqE1njENDSFIZz4qk9RXe7xwk4XKqsEgF+rmkOHCQHrqpUk/a06GsKw8Yw0yq5/CiAee2lLaOjIMCMvpY18NG19FJ/FPElZjwE9DaFYWNA/t0XqfzelKnvlBTPluh0FR5sMeb0F+rPdxpB5qlBQH9TGDGGXNGpLiXCZ9TAmj0V8ktDemqeDlMYMQYqOdUlIPxFesqjSSbMVzYL9UWaqBWZqb3ROEZiRaf6IwLOksrHQ4CZf2oX6ifHs5qsEgeB9HxT2IJWyal+H8B5cQDM8hrMWGlbm2bLLw3p2gWpNAW/REWneiMBF6WrXOpkw+B1g+bQrA205lV1VImSMAik1hR8OKXByhUgkmvdMHbK1jFchneIvNMQPlgVIqbaFEa+MZQvJBg3qQA7LRqYvdPtQmNxWvKRPLYmkHpT2GwM5xKMH0jxuyfA4Jttq35h95EkgqoEMmEKPnxpbBvGFuRfNM360SB4YUSTGGoSyIwpbL7HII1tO9yHzPySa/EBcnpShwA1mpYpUxj+xiCNbdvengy8PWRiljRuaRudlhMyZwrD3xiGZpwAL/eAlhVLQLRntD7dl1/1swSWliUTIJBJU/A5b+5f+ShAhQS4a7MkE3/DNuvf1UawCO2aQGZNYfgbgzvjMLDxuDS2HX0fMWOZXaid2PUukwBaEci0KQx/Y3D2OchA/kkCJmhVuajFMjea1sBH5RHmqEGrFz/zpuCXRBrbfnBj8pstkz/WT42X1NuyoihqAmIKmwlLY9sREAz2POI/7TcbP49680l8NQmIKWxRF2lsC4DwtaZZu0bN7Sqq4iAgpvAByllubCs3FuP4l1N/DTGFUWrkN7Ylh/49S/0rGfxr2xyYIzcW1f+njVqhmMIYhDPWv3LDgOkeIGcjRP3vpkd8MYVt1GkKT5ucc8wVICrrUc7OVLaodXS/ucpvriMfIQAxhXE2wU48c9cJDj9FhJmp3C/ElzXN+lWpzE2S6oiAmEIAbKltbMv8SLNQPy4AAhmSIQJiCgGLnbrGtowXWtaGA/qp//cBEciwjBAQU2ij0GlpbMvAO2R6s5rUaLSRvgzNCAExhXYLnYLGtmzgJDtfk1fH2619RsaLKXRSaK0b2/KtTat+QSdpy5xsEBBT6LTOI41tf6JT/0oGP2ub9TlyxmKnRc/GPDGFbuqsV//KDY6Jj6ynmt1NyjI3/QTEFEKocdGp3EOg00IIFUkI/81HkHeUba56KpIFJGiqCIgphFTOolP5IYHOCSlcqGE88i7tMxvXhhpUgqWWgJhCiKVVsbEtMz9uF+rHhJimhEo5ATGFkAusVGNb5tc2Wc6+b9CLb4acpoRLMQExhQiKW3Iri8B0RQShA4dkYAjAQbZVezbwJBkoBIbP2ZFPJASSbmzLxBfbZv2GSJKToKkmIKYQYXmLTjmRxrZyHyHComYgtJhCxEWOvbGt3EeIuKLpDy+mEEON4+pfKfcRYihmBpYQU4ipyKWh8gL2jKUE5KNakoGv2FbtxqjiS9xsEBBTiLHORbd8LLGxHIAZ9rJyHyFsotmNJ6YQc+0jaWwr9xFirmK6lxNTSKC+vW55rsHkd7zuCWN5D62D+qxVvwojlsQQAmIKCe2BsBrbynsNCRUwxcuKKSRY3BAa2z7ZtGpHJ5iCLJ1CAmIKCRe108a2DF5vmKi8RvXXE05Blk8ZATEFBQrqN7aFm/s3Ak0OIofB7BEfLZ2hg9CSMe0SEFNol1hE4/3+lYaDZ0BUGncJxjXNQu1r446TAUKgAwJiCh1Ai2pKiaftwY719DiNbf+3adYOBKEVlQ6Jm20CYgqK1X9bjW0ZvBEm7WdT7RXFZIucFBEQU1CwmL08fZLhmM+AsM9W8ozWic38qmUKShZJKSIgpqBoMUdpbHtH06qdpahckZUiAmIKChfzvca2TNsZ1sYDXqVXNyksV6SlhICYguKF9I2hB7mSTatriksVeSkhIKaQkkJKGkIgLAJiCmGRlDhCICUExBRSUkhJQwiERUBMISySEkcIpISAmEJKCilpCIGwCIgphEVS4giBlBAQU0hJISUNIRAWATGFsEhKHCGQEgJiCikppKQhBMIiIKYQFkmJIwRSQkBMISWFlDSEQFgExBTCIilxhEBKCPw/W1Y9MuO8p1oAAAAASUVORK5CYII=" vertex="1" parent="1">
          <mxGeometry x="346.95" y="510" width="26.1" height="20" as="geometry" />
        </mxCell>
        <mxCell id="nGL3_lGxGscLZ1-xO2Rq-38" value="" style="endArrow=classic;startArrow=classic;html=1;rounded=0;exitX=0.5;exitY=1;exitDx=0;exitDy=0;dashed=1;" edge="1" parent="1">
          <mxGeometry width="50" height="50" relative="1" as="geometry">
            <mxPoint x="200" y="585" as="sourcePoint" />
            <mxPoint x="200" y="640" as="targetPoint" />
          </mxGeometry>
        </mxCell>
        <mxCell id="nGL3_lGxGscLZ1-xO2Rq-39" value="" style="endArrow=classic;startArrow=classic;html=1;rounded=0;dashed=1;entryX=0.5;entryY=0;entryDx=0;entryDy=0;exitX=0.5;exitY=1;exitDx=0;exitDy=0;" edge="1" parent="1" source="nGL3_lGxGscLZ1-xO2Rq-42" target="nGL3_lGxGscLZ1-xO2Rq-3">
          <mxGeometry width="50" height="50" relative="1" as="geometry">
            <mxPoint x="520" y="580" as="sourcePoint" />
            <mxPoint x="519.5" y="637.5" as="targetPoint" />
          </mxGeometry>
        </mxCell>
        <mxCell id="nGL3_lGxGscLZ1-xO2Rq-40" value="" style="shape=image;verticalLabelPosition=bottom;verticalAlign=top;imageAspect=0;aspect=fixed;image=data:image/png,iVBORw0KGgoAAAANSUhEUgAAAQUAAADICAYAAADhl/RPAAAAAXNSR0IArs4c6QAAGC5JREFUeF7tnXmUHNV1xr9b3VU9IEBskqbbAQsk1N3CgC0hg9llEYEdkFkSGQyE2BwM+EDABmPjBAtj55gdAngJMZAAMhFYRojFhAN2IiDH8UlIAra6WxKbDV0zkhAHhNFM1XTdUDMySHhGU91dy3tVt/+d9+777u+++U5XddW7BPkIASEgBLYgQEJDCAgBIbAlATEF2Q9CQAhsRUBMQTaEEBACYgqyB4SAEBibgHxTkN0hBISAfFOQPSAEhIB8U5A9IASEQEACcvkQEJQMEwJZISCmkJVKS55CICABMYWAoGSYEMgKATGFrFRa8hQCAQmIKQQEJcOEgIoEpvC0yTnHuqRZqF0alj4xhbBIShwhEDOBXqfyVwboBgC7MHCTbdW+HIYEMYUwKEoMIRAjgd14xocKrnE3QHO3WtbwPtPMN5Z3K0VMoVuCMl8IxEWAQSW3fAHD+DsCdvjgsgzeCJP2s6n2SjeSxBS6oSdzhUBMBEpcLsOlOwA6ZFtLMvhZ26rP7kaWmEI39GSuEIiaAE8vFJ38IiK6BIAZbDn+XtOqnx9s7B+PElPolJzMEwIRE+h1y3PJozuIaGrbS3Vxf0FMoW3aMkEIREugl6dPMlzzVgALO12pm/sLYgqdUpd5QiACAkWnfC5A1xBox27DM/h52xz4OOjlgXZiiSm0Q0vGCoGICOzK0/+k4ObvJtBRYS7B4Ntsq35OOzHFFNqhJWOFQAQEik7lbADXh/HtYDR5HnsL+wqN+4NKF1MISkrGCYGQCezO1aLl4i4AR4cceqtwDLzTMt3919KaF4KsI6YQhJKMEQIhEyg61TMIfAtAE0MOPWo4ZqzMWRsPfJVe3TTeemIK4xGSvwuBEAmM+YhyiGuMHYrvbFr1L4y3lJjCeITk70IgDAIM6nWr5xH4qqjuHQSRycBf2lbt7m2NFVMIQlLGCIEuCEzh8l451/gxgIO7CBPSVB5gszXLptW1sQKKKYSEWsIIgdEI9LrlrxpsXKMOHX7TM+i0vnztETEFdaoiSjJAYDJPn5Zz80sI1NXLSWGiYubHhyzjzHW0sk8uH8IkK7GEwDgEik71IgJuVAjUG8zeBXahsTiIJrl8CEJJxgiBAASKXP0wubwYoEMDDI9lCAMrWubAwrX0Un/QBcUUgpKScUJgGwR6neqXDPD1APWoAsoj/mqfWb+uXT1iCu0Sk/FCYAsCk3mvKTmncBcRzVcGDPOqIfIWrrVW/V8nmsQUOqEmc4QAgKJbOYYY/uXCbqoAYeZ/Jeutk5rUfKdTTWIKnZKTeZklUOLS9uzudCOBvqgSBI+9q/usxmUgcDe6xBS6oSdzM0eg6FRmE9O/gDBdqeSZP9cs1O8NQ5OYQhgUJUYmCPS61csNxpVKJctsM+F426r/d1i6xBTCIilxUkvAf0zZcMl/EGmOYkn+j2e6x/TRmnVh6hJTCJOmxEodgZHj0YzrCJigVHKM+5uWewZozWDYusQUwiYq8VJBwD8AxXRwOxE+pVpCTLjcNmvfiUqXmEJUZCWutgT8B5EIuHq0LkzJJsWbYPApYbSG21YeYgrJVllWV4jAyL0D458JOFwhWcNSGLyW2fhkX2Hlb6LWJqYQNWGJrwWBXrdyicF0rYpi/aPaXZOPXU+NZhz6xBTioCxrKEtg+DFlt+c+Ao5QVOQThrlxQZCzFcPSL6YQFkmJox2B4lD1RPJwO4BdVBTP4Jttq35h3NrEFOImLuslTsB/TBnuxFsAjHuIaRJiGcwAXWxbtUTOZBBTSKLqsmZiBIpO+UBiw39MeVpiIsZZuMU4pb9QW5KUPjGFpMjLuvESYORKTuVyJvobAvLxLh5steGmsETH2WZtRbAZ0YwSU4iGq0RViMAknjY975o/VvAx5fcoMaOP4c7rK6xZmTQ6MYWkKyDrR0qg5FQuAOjmSBfpMjgDvxk03WM30JpXuwwVynQxhVAwShDVCEzhaZMNx/RPRDpGNW1b6mHg6QFz8Lg36MU3VdEppqBKJURHaARUPBFptOSY8aBt0ULQSie05EMIJKYQAkQJoQgBnmmVXPZ/xvuSIoq2JeMHTaumpE4xBQ12j0gcn8CUwepHDPD9RFQZf3TCI4gva5r1qxJWMebyYgqqVkZ0BSZQcsp/DRh/H3hCggM94Mw+q3ZXghLGXVpMYVxEMkBVAlN4ygTD2fUeIpygqsb3dfGgZ9DJ2+rhqEoOYgqqVEJ0tEVg8mB5/xzoQSKa2tbEBAb7DyW1CMeuNev/kcDybS8pptA2MpmQNIHNvRqvBmAlrWX89fn1FtNR/YXar8cfq8YIMQU16iAqAhDYhfee2OMU7iTCiQGGJz+E2XYsHLWe6quSFxNcgZhCcFYyMkEC/uVCHsbDIOyRoIzASzPjt2Q5hzXphd8FnqTIQDEFRQohMsYmsPnXBf9UJA0uFwBmfsm16ND1VLN1rKuYgo5Vy4jmXXn6TgXH/CdtLhf8sxSZ657lHtlPL6zVtUxiCrpWLuW6i051FpiX6vDrwvul4Oc2mc4RKr3H0Mk2EVPohJrMiZRAr1u52GC6LtJFQg7OwK8GzMH5uhuCj0VMIeTNIeE6J7AzT915O6dnCRHN7zxK/DMZeIrMN4/tpv17/KrHXlFMQaVqZFhLyZ1xGHu5+4nQqxUG5keahfpxWmkeR6yYQpqqqWku/uUCMV2l6jFpY2Id7udYOxWElqboR5UtppCmamqWyySeuYPpeItBtEAz6b7cO5pW7SwNdY8rWUxhXEQyIAoCJZ5RYcd4lIj2iiJ+lDEZuMm2al+Oco0kY4spJEk/o2sXncrZBNwMUI92CNj7drPQ+KZ2utsQLKbQBiwZ2h0B/92F7RzrbhAd312kZGZ7xJf0mfXrk1k9vlXFFOJjnemViu6Mw+Hl7tPu14XNVcuKIfjpiimM8q9aHKx+p2UN3bGWVr+Y6f/kkJIvDVauBdElIYVLIAxf0LTqtyawcCJLiilsgb2Xp08iN38/gY4Es81Wa55Nq2uJVCYFi5Z47z3ZtZYS6EBd02F459lW44e66u9Et5jCZmr+s/bE/DCIiu+D9A/IwNz+Qv35TuBmec4Ud8a8HBtLAZqoI4fNTV7PtK3a3Trq70azmAKAolP5IoH8LsR/9Goug9/y0Jrfb63+z25AZ2Yug0pOZRETLieQoWPeviEw+Kw+q3Gnjvq71ZxtU2CYRbd6OwFnbBskb2oRH9dvNn7eLfA0z/dfde5xzaUAjtY5Tw/eF7JqCJm+0bgbz/iQ5RoPEmh2wA3sMnkLbLPxWMDxmRo20ncBjxBhT50Tz+I9hA/WK5PfFPyXb8DGMoB2a2cDMzDEhndqX77xk3bmpX1sabDiP/9/J0AFnXMVQxipXuZMoehWvgLGNQTKdbKBs369uRUznmkVXe9mAp3TCUuV5jC8i2yroUVDmai5ZccUeGpP0elZTEQnhQE165tody6XLNd4GMDHwuCZZIys1zKTlw+TeZ+9c25+OQH7hrr5mL/VLNSvCDWmBsE6vfxSMrWM1nBbtUj9N4WSW5nPDP+BpJ0i2pTKdg+OIt+iU/XfDrxGu7MPRoXBtzat+gVRcNI5ZnpNwf+9fKjyzXd/cF5EoKjzTO279e9t7pE2735j1M/qvOH/oJ3B/2hb9S+mIZewc4j6nyVsvYHi7c7lHU2H/LbkxwSaEMaglJ7C46PxH1eGay0H6IAwUCkQY0nTqp2igA4lJaTOFHoHZ+5rgB8EYVrsxFN4Xl/RrRxDTPcC2CV2nhEsyIwH7EItlJvNEchTImSqTKE4VD2RPF4M0HZJ0fVP9rXNTfNBLw8kpSGUdRlGySlfwUR/G8PlVyiSAwR5omnWPg2CG2BsZoekwxQYuZJTuUqh13N/6Zje/PXU2KjjzprIe+6yvbv9A8Nvi6bn88um6R4FWjOYnpSiyUR7U9iJZ+46weVlBBweDaJOo/Jzb5vG3Ldo5YZOIyQxr9eZMcdg4wEQfSiJ9aNZk59rmW8c0k/9v48mfrqiam0KRacymxgPqrqB/b6CrsXz1lOjqcO2KTrlCwnGTTpoDaqRGbXfW3SYbuYcNL8oxmlrCsXB8ulExu2qdyL2W5KzxUf2Uf3lKAoYSkz//oFb+RFAnw8lnipBGL9zLfr4OlrZp4okHXToZwqMfNGt3kLAuToA9jUyeO2Q6R66jl5Yo5rm4VZtbs+ylN0/8Ns/256FQ5Q2Y9U2w2Y9WpnCJJ7Za7r8AICDFeW5DVnqneI0madPyzn5J/Tq7Byo8htc0zlIRRMOpD7hQdqYwhRnn4MM5B4i0KSEmXW8vEqnOBXd6hFg9nlG9fh3x5y6mcjA2x7zIXKEXucUtTAF/3l7Am7oPE11ZjLwjketBf3mqieTUlVyKue/e5aEf/xc6j5MrSNsc9VTqUssxoSUN4WiU7mHQKfFyCSepQzvhGa+8WA8i72/StGp3Eags+NeN471WgYf35+v+69zy6cLAsqaQgqft9+qTHGf4uQ/z7GD6z0E0CFd7BdlpzJ7p9uFxmJlBWokTElT6HXLcw02fgpgZ41Yti01rlOcNr8P8jMQ9mhbpAYTmPgbtln/rgZStZConCkU3co3wPi2rseDd1L1KE/+KQ2VF7Bn3EvA9p1oU38Of69p1c9XX6c+CpUxhRKXtoez0xIQHacPvhCVMl/ZLNQXhRgRJbeyKKbzJMKUHTyW/7p6obYw+AQZGYSAEqawO1dmWA6Wg6gcRHSKx4RzihNP7Sk5Pfen2WAZeNo2a0eB0ErxfkgktcRNoXeo+mfkYQkBExIhoN6iXZ3iNNK/sfBo6OdRKsSJwb8eMo1PrKOVbyskKzVSkjMFhlF0Kt8hostSQzOsRDo8xWnkQNXcQ2m+Qeu/S+JZzpx+emFtWLglztYEEjEF/339Ce6E+3RvLxbpZmJ+qFmoLwi6Rq9TPs+A8f2g4zUdJ48vx1C42E1h8mB5/xyM5UT4cAz5ab1E0FOcSoPVq0G4VOtkxxfvtDB0hDT6HR9UtyNiNYXewfJCg+gu3duLdQu9zfljn+LEoKJbuTuVT3xuAcl/noMM76RmftWyNtnJ8A4IxGMKjHzJrdwIkPye3EGRgFFOcfJbtjm8jAif6iikRpM88i7tMxvXaiRZa6mRm0KJZ+wOd/jml4avOytUW8Zqx8KR66lmj7R8zz8G0CcUUhiJFAbfZlt17XtVRgInoqDRm4Jb+TqY5BHUEArIjFdaBp+aY/wDgfYLIaTaIdq82ap2Mvqoi9wUfBSlwfKVIONyfbCI0qQJMPh52xz4uPZH5ScNsoP1YzEFX1caDwXtgLdMCUKA+bWW5c6SZxGCwAp/TGymIMYQfvHSGJHBG5mHDu4rrFmZxvx0yClWU/CB9DrlzxPo9hR1HdKhzlpoZHAL5M2Vk5OSLVfspjByj6HyOSb4Jyolsn6yyGX1sQh4wJl9Vs3vbC2fBAkk9k/ZO1T+c/JoSZbOTUiwzsov7bF3dV+h8XXlhWZAYGKmMPyNYeQAkKUE5DPAWlIcg4B0glZrayRqCsM3H93yscTGcgCmWmhETRwEGPysbdYPlk7QcdAOtkbipuDLnOKWP5ljejjJFvLBcMmoMAn4D2MZFs9+jeqvhxlXYnVHQAlTGL6UcMuHMhuPEbBDdynJbD0I8JuuSXPWUW21Hnqzo1IZUxi+lHCqswD+Rdq6FmVnOwXO1GVqzZOfHgPzinWgUqYwfCkxWNkvR7QizacHxVphBRfz2PtsX6HhH7IjHwUJKGcKw98YeJ8qubmn3m1ttpuCzERSNwSYv9Us1K/oJoTMjZaAkqbgpzyJp03Pu+YzBJocLQKJHiOBJU2rdkqM68lSHRBQ1hT8XHq5MtVw8AyISh3kJlMUIsDACtuszQNhSCFZImUUAkqbgq+3xNP2YMd6mgh7SgU1JcBY41jerPXU2KhpBpmSrbwp+NXYnatF0+FniGivTFUnBckyeD2ZzuwmvfjbFKSTiRS0MIWRS4npk8jJryCiSiYqk4okeYDBh9tW479SkU5GktDGFPx67MJ7T9zOtVYAtH9G6qN1mmzwyXa+7ncPl49GBLQyhZFLifKOpkv+A06zNeKcPansfbtZaHwze4nrn7F2pjBy87G0PdyJT8oJ0YpuQOaHm4X68YqqE1njENDSFIZz4qk9RXe7xwk4XKqsEgF+rmkOHCQHrqpUk/a06GsKw8Yw0yq5/CiAee2lLaOjIMCMvpY18NG19FJ/FPElZjwE9DaFYWNA/t0XqfzelKnvlBTPluh0FR5sMeb0F+rPdxpB5qlBQH9TGDGGXNGpLiXCZ9TAmj0V8ktDemqeDlMYMQYqOdUlIPxFesqjSSbMVzYL9UWaqBWZqb3ROEZiRaf6IwLOksrHQ4CZf2oX6ifHs5qsEgeB9HxT2IJWyal+H8B5cQDM8hrMWGlbm2bLLw3p2gWpNAW/REWneiMBF6WrXOpkw+B1g+bQrA205lV1VImSMAik1hR8OKXByhUgkmvdMHbK1jFchneIvNMQPlgVIqbaFEa+MZQvJBg3qQA7LRqYvdPtQmNxWvKRPLYmkHpT2GwM5xKMH0jxuyfA4Jttq35h95EkgqoEMmEKPnxpbBvGFuRfNM360SB4YUSTGGoSyIwpbL7HII1tO9yHzPySa/EBcnpShwA1mpYpUxj+xiCNbdvengy8PWRiljRuaRudlhMyZwrD3xiGZpwAL/eAlhVLQLRntD7dl1/1swSWliUTIJBJU/A5b+5f+ShAhQS4a7MkE3/DNuvf1UawCO2aQGZNYfgbgzvjMLDxuDS2HX0fMWOZXaid2PUukwBaEci0KQx/Y3D2OchA/kkCJmhVuajFMjea1sBH5RHmqEGrFz/zpuCXRBrbfnBj8pstkz/WT42X1NuyoihqAmIKmwlLY9sREAz2POI/7TcbP49680l8NQmIKWxRF2lsC4DwtaZZu0bN7Sqq4iAgpvAByllubCs3FuP4l1N/DTGFUWrkN7Ylh/49S/0rGfxr2xyYIzcW1f+njVqhmMIYhDPWv3LDgOkeIGcjRP3vpkd8MYVt1GkKT5ucc8wVICrrUc7OVLaodXS/ucpvriMfIQAxhXE2wU48c9cJDj9FhJmp3C/ElzXN+lWpzE2S6oiAmEIAbKltbMv8SLNQPy4AAhmSIQJiCgGLnbrGtowXWtaGA/qp//cBEciwjBAQU2ij0GlpbMvAO2R6s5rUaLSRvgzNCAExhXYLnYLGtmzgJDtfk1fH2619RsaLKXRSaK0b2/KtTat+QSdpy5xsEBBT6LTOI41tf6JT/0oGP2ub9TlyxmKnRc/GPDGFbuqsV//KDY6Jj6ynmt1NyjI3/QTEFEKocdGp3EOg00IIFUkI/81HkHeUba56KpIFJGiqCIgphFTOolP5IYHOCSlcqGE88i7tMxvXhhpUgqWWgJhCiKVVsbEtMz9uF+rHhJimhEo5ATGFkAusVGNb5tc2Wc6+b9CLb4acpoRLMQExhQiKW3Iri8B0RQShA4dkYAjAQbZVezbwJBkoBIbP2ZFPJASSbmzLxBfbZv2GSJKToKkmIKYQYXmLTjmRxrZyHyHComYgtJhCxEWOvbGt3EeIuKLpDy+mEEON4+pfKfcRYihmBpYQU4ipyKWh8gL2jKUE5KNakoGv2FbtxqjiS9xsEBBTiLHORbd8LLGxHIAZ9rJyHyFsotmNJ6YQc+0jaWwr9xFirmK6lxNTSKC+vW55rsHkd7zuCWN5D62D+qxVvwojlsQQAmIKCe2BsBrbynsNCRUwxcuKKSRY3BAa2z7ZtGpHJ5iCLJ1CAmIKCRe108a2DF5vmKi8RvXXE05Blk8ZATEFBQrqN7aFm/s3Ak0OIofB7BEfLZ2hg9CSMe0SEFNol1hE4/3+lYaDZ0BUGncJxjXNQu1r446TAUKgAwJiCh1Ai2pKiaftwY719DiNbf+3adYOBKEVlQ6Jm20CYgqK1X9bjW0ZvBEm7WdT7RXFZIucFBEQU1CwmL08fZLhmM+AsM9W8ozWic38qmUKShZJKSIgpqBoMUdpbHtH06qdpahckZUiAmIKChfzvca2TNsZ1sYDXqVXNyksV6SlhICYguKF9I2hB7mSTatriksVeSkhIKaQkkJKGkIgLAJiCmGRlDhCICUExBRSUkhJQwiERUBMISySEkcIpISAmEJKCilpCIGwCIgphEVS4giBlBAQU0hJISUNIRAWATGFsEhKHCGQEgJiCikppKQhBMIiIKYQFkmJIwRSQkBMISWFlDSEQFgExBTCIilxhEBKCPw/W1Y9MuO8p1oAAAAASUVORK5CYII=" vertex="1" parent="1">
          <mxGeometry x="523.9" y="600" width="26.1" height="20" as="geometry" />
        </mxCell>
        <mxCell id="nGL3_lGxGscLZ1-xO2Rq-41" value="UAV 1" style="text;html=1;align=center;verticalAlign=middle;whiteSpace=wrap;rounded=0;" vertex="1" parent="1">
          <mxGeometry x="170" y="554.5" width="60" height="30" as="geometry" />
        </mxCell>
        <mxCell id="nGL3_lGxGscLZ1-xO2Rq-42" value="UAV 2" style="text;html=1;align=center;verticalAlign=middle;whiteSpace=wrap;rounded=0;" vertex="1" parent="1">
          <mxGeometry x="490" y="555" width="60" height="30" as="geometry" />
        </mxCell>
      </root>
    </mxGraphModel>
  </diagram>
</mxfile>
